<?xml version="1.0" encoding="utf-8"?>
<svg version="1.2" xmlns="http://www.w3.org/2000/svg" x="0px" y="0px" viewBox="0 0 699.8 215.96" overflow="visible" xml:space="preserve">
<path fill="#01B4E7" d="M638.77,104.63l-0.02-0.3l-0.23-0.14c-4.58-2.78-10.58-4.34-16.46-4.46c-0.12-0.78-0.85-6.28-0.95-7.07
	c5.61-1.59,11-4.64,14.77-8.54l0.2-0.18l-0.06-0.3c-0.28-2.09-1.07-5.01-1.79-6.78l-0.12-0.26l-0.29-0.07
	c-5.16-1.47-11.34-1.43-17.03,0c-0.27-0.73-2.37-5.79-2.67-6.51c5-3.05,9.39-7.37,12.02-12.06l0.14-0.22l-0.11-0.29
	c-0.76-1.8-2.28-4.42-3.49-6.06l-0.17-0.23h-0.31c-5.31-0.11-11.25,1.51-16.48,4.33c-0.46-0.64-3.87-5.07-4.33-5.69
	c4.08-4.21,7.19-9.53,8.52-14.75l0.08-0.29l-0.2-0.22c-1.21-1.6-3.33-3.75-4.92-5l-0.22-0.16l-0.3,0.04
	c-5.23,1.33-10.53,4.45-14.74,8.51c-0.65-0.49-5.07-3.95-5.71-4.48c2.81-4.97,4.46-10.72,4.46-16.02c0-0.14-0.03-0.71-0.03-0.71
	l-0.22-0.17c-1.63-1.28-4.21-2.76-6.09-3.52l-0.26-0.1l-0.23,0.13c-4.69,2.6-8.99,6.96-12.01,11.97c-0.76-0.29-6.13-2.56-6.84-2.86
	c0.71-2.82,1.15-5.72,1.15-8.61c0-2.92-0.35-5.79-1.15-8.39l-0.07-0.27l-0.29-0.11c-1.77-0.76-4.61-1.54-6.71-1.85l-0.31-0.05
	l-0.19,0.2c-3.88,3.76-6.92,9.12-8.54,14.74c-0.8-0.13-6.36-0.82-7.21-0.91c-0.07-5.82-1.64-11.79-4.41-16.43l-0.14-0.26l-0.29-0.01
	c-2.01-0.25-5.05-0.25-7.01,0l-0.32,0.01l-0.14,0.26c-2.75,4.59-4.3,10.56-4.4,16.41c-0.81,0.11-6.46,0.8-7.27,0.93
	c-1.62-5.65-4.67-11.03-8.53-14.77l-0.22-0.22l-0.32,0.05c-2.07,0.31-4.95,1.08-6.73,1.81l-0.27,0.11l-0.1,0.27
	c-0.73,2.64-1.12,5.55-1.12,8.49c0,2.84,0.45,5.76,1.12,8.55c-0.71,0.31-6.14,2.64-6.86,2.93c-3.04-5-7.35-9.39-12.03-12.03
	l-0.26-0.15l-0.29,0.1c-1.79,0.79-4.4,2.29-6.05,3.53l-0.26,0.16v0.77c0,5.25,1.63,11.02,4.42,16.02c-0.61,0.5-4.69,3.7-5.3,4.19
	c-4.21-4.07-9.52-7.19-14.77-8.55l-0.26-0.05l-0.2,0.19c-1.61,1.21-3.77,3.32-5.01,4.93l-0.18,0.23l0.07,0.28
	c1.31,5.21,4.44,10.54,8.49,14.78c-0.44,0.62-4,5.25-4.49,5.89c-5.09-2.84-11.01-4.52-16.44-4.45l-0.27,0.01l-0.18,0.25
	c-1.19,1.58-2.69,4.13-3.51,6.07l-0.12,0.25l0.14,0.27c2.6,4.66,7,9.02,12.03,12.07c-0.28,0.72-2.33,5.74-2.65,6.47
	c-5.77-1.43-11.93-1.45-17.06,0.05l-0.28,0.07l-0.1,0.25c-0.76,1.8-1.54,4.64-1.84,6.77l-0.04,0.29l0.2,0.23
	c3.75,3.85,9.13,6.9,14.76,8.46c-0.12,0.8-0.85,6.35-0.94,7.11c-5.85,0.11-11.87,1.66-16.46,4.41l-0.25,0.14l-0.02,0.3
	c-0.12,1.01-0.19,2.26-0.19,3.52c0,1.25,0.07,2.5,0.19,3.5l0.02,0.29l0.25,0.13c4.6,2.75,10.56,4.33,16.44,4.41
	c0.11,0.8,0.9,6.51,0.99,7.29c-5.64,1.66-10.98,4.74-14.73,8.59l-0.2,0.24l0.03,0.26c0.32,2.11,1.1,5.01,1.83,6.76l0.11,0.26
	l0.27,0.09c5.21,1.48,11.36,1.42,17.07,0c0.29,0.72,2.5,5.77,2.81,6.5c-5,2.99-9.38,7.32-12.03,12.01l-0.13,0.26l0.1,0.26
	c0.77,1.84,2.3,4.45,3.52,6.06l0.19,0.23l0.26,0.01c5.38,0.07,11.31-1.52,16.46-4.36c0.48,0.61,3.96,5.14,4.42,5.76
	c-4.05,4.14-7.19,9.45-8.53,14.73l-0.07,0.27l0.17,0.23c1.24,1.58,3.37,3.7,4.94,4.98l0.23,0.2l0.28-0.1
	c5.21-1.3,10.5-4.4,14.76-8.48c0.65,0.5,5.15,3.97,5.82,4.46c-2.77,5.09-4.39,10.9-4.39,16.18v0.59l0.26,0.2
	c1.57,1.19,4.13,2.65,6.04,3.51l0.26,0.1l0.28-0.13c4.7-2.62,9.04-7.02,12.08-12.08c0.7,0.29,5.65,2.29,6.38,2.59
	c-0.71,2.79-1.12,5.66-1.12,8.5c0,2.97,0.39,5.88,1.15,8.49l0.07,0.28l0.29,0.11c1.78,0.76,4.64,1.54,6.74,1.88l0.32,0.04l0.2-0.23
	c3.89-3.78,6.93-9.16,8.45-14.73c0.82,0.13,6.51,0.94,7.31,1.03c0.11,5.87,1.69,11.85,4.45,16.41l0.13,0.25l0.31,0.04
	c2.02,0.26,5.03,0.26,7.01,0l0.29-0.04l0.14-0.25c2.73-4.56,4.3-10.55,4.45-16.45c0.79-0.11,6.12-0.86,6.92-0.99
	c1.57,5.66,4.63,11,8.52,14.77l0.22,0.19l0.26-0.02c2.12-0.34,5-1.09,6.79-1.81l0.26-0.13l0.09-0.26c0.76-2.63,1.1-5.53,1.1-8.49
	c0-2.87-0.41-5.79-1.1-8.61c0.73-0.28,5.9-2.51,6.62-2.84c3.04,5.02,7.37,9.42,12.04,12.05l0.23,0.12l0.28-0.1
	c1.85-0.77,4.48-2.28,6.09-3.54l0.23-0.14c0,0,0.02-0.62,0.02-0.79c0-5.17-1.64-10.95-4.36-16.01c0.61-0.49,4.88-3.8,5.49-4.3
	c4.27,4.05,9.58,7.17,14.79,8.51l0.28,0.08l0.22-0.2c1.59-1.25,3.76-3.39,4.99-4.94l0.19-0.25l-0.1-0.26
	c-1.3-5.2-4.4-10.52-8.47-14.78c0.47-0.62,3.92-5.15,4.39-5.79c5.16,2.84,11.09,4.48,16.43,4.36h0.29l0.18-0.21
	c1.27-1.63,2.75-4.18,3.52-6.11l0.11-0.25l-0.14-0.26c-2.55-4.59-6.91-8.95-11.91-12.1c0.29-0.71,2.33-5.7,2.63-6.42
	c5.67,1.46,11.82,1.51,17,0l0.25-0.08l0.12-0.26c0.76-1.83,1.53-4.66,1.85-6.75l0.03-0.29l-0.22-0.22c-3.76-3.89-9.1-6.9-14.68-8.5
	c0.12-0.78,0.88-6.13,0.95-6.92c5.92-0.1,11.92-1.68,16.5-4.44l0.23-0.15l0.02-0.31c0.14-0.97,0.19-2.25,0.19-3.5
	C638.96,106.85,638.9,105.61,638.77,104.63 M531.05,188.26c-44.6,0-80.9-36.3-80.9-80.92c0-44.61,36.3-80.91,80.9-80.91
	c44.62,0,80.9,36.29,80.9,80.91S575.66,188.26,531.05,188.26"/>
<path fill="#01B4E7" d="M531.05,36.16c-39.23,0-71.16,31.94-71.16,71.18c0,39.26,31.93,71.19,71.16,71.19
	c39.24,0,71.18-31.93,71.18-71.19C602.23,68.1,570.29,36.16,531.05,36.16 M540,47.61c0.68-0.56,1.6-0.38,2.49-0.2
	c14.3,3.46,24.81,9.5,35.05,20.28c0.73,0.77,1.12,1.48,1.12,2.12c0,0.06-0.02,0.16-0.02,0.25c-0.22,0.98-1.31,1.51-2.29,1.97
	L546.4,86.54c-1.18,0.56-2.28,0.61-3.14,0.07c-0.88-0.5-1.43-1.49-1.53-2.78l-2.42-33.17C539.22,49.07,539.43,48.1,540,47.61
	 M484.41,67.94h0.02c10.25-10.76,20.73-16.83,35.03-20.26c0.88-0.2,1.83-0.37,2.45,0.2c0.61,0.47,0.82,1.45,0.71,3.04l-2.42,33.17
	c-0.08,1.27-0.61,2.28-1.51,2.77c-0.87,0.52-2.01,0.5-3.14-0.07L485.63,72.3c-0.98-0.49-2.12-1-2.32-1.99
	C483.22,69.64,483.55,68.84,484.41,67.94 M477.3,129.42c-1.3,0.89-2.26,1.21-2.99,0.94c-0.82-0.28-1.09-1.18-1.34-2.06
	c-4.23-14.13-4.23-26.25-0.05-40.49c0.36-1.22,0.87-1.9,1.52-2.13c0.96-0.34,1.96,0.36,2.86,0.98l27.51,18.72
	c1.04,0.68,1.64,1.65,1.64,2.69c0,1-0.6,1.96-1.6,2.69L477.3,129.42z M522.46,168.37c-0.66,0.53-1.57,0.37-2.48,0.14
	c-14.29-3.41-24.81-9.46-35.03-20.25c-0.74-0.77-1.1-1.45-1.1-2.06c0-0.11,0-0.17,0.02-0.3c0.14-0.94,1.3-1.49,2.26-1.96
	l29.95-14.53c1.17-0.55,2.3-0.58,3.18-0.05c0.86,0.51,1.4,1.48,1.51,2.75l2.42,33.24C523.27,166.92,523.04,167.89,522.46,168.37
	 M530.99,126.93c-10.73,0-19.44-8.72-19.44-19.44c0-6.54,3.26-12.62,8.75-16.24c1.8-1.21,4.24-0.69,5.43,1.11
	c1.19,1.81,0.71,4.25-1.1,5.44c-3.28,2.15-5.22,5.77-5.22,9.69c0,6.38,5.21,11.59,11.59,11.59c6.4,0,11.6-5.21,11.6-11.59
	c0-3.92-1.94-7.55-5.22-9.69c-1.81-1.2-2.3-3.64-1.1-5.44c1.19-1.79,3.63-2.31,5.43-1.12c5.46,3.62,8.75,9.69,8.75,16.25
	C550.45,118.22,541.72,126.93,530.99,126.93 M577.58,147.87c-10.2,10.74-20.65,16.79-35.03,20.23c-1.22,0.31-2.06,0.21-2.59-0.22
	c-0.75-0.63-0.65-1.89-0.58-2.98l2.39-33.19c0.15-1.29,0.66-2.27,1.57-2.81c0.88-0.47,2.01-0.44,3.12,0.1l29.95,14.5
	c1.4,0.69,2.15,1.37,2.29,2.12C578.86,146.46,578.25,147.19,577.58,147.87 M587.68,85.53c0.81,0.27,1.13,1.16,1.37,2.05
	c4.2,14.14,4.2,26.24,0,40.49c-0.34,1.22-0.83,1.9-1.48,2.17c-0.94,0.29-1.97-0.38-2.83-1.03l-27.54-18.69
	c-1.06-0.71-1.68-1.67-1.68-2.7c0-1.01,0.6-1.97,1.68-2.71l27.54-18.66C585.98,85.55,586.95,85.27,587.68,85.53"/>
<path fill="#01B4E7" d="M128.07,130.97c-1.88,0.08-5.39,0.24-7.62,0.24c-6.08,0-6.39-2.99-6.39-11.67V94.49h14.25
	c1.29,0,2.32-1.04,2.32-2.33v-7.99c0-1.29-1.03-2.32-2.32-2.32h-14.25V70.07c0-0.73-0.34-1.39-0.9-1.84
	c-0.56-0.44-1.29-0.59-1.98-0.43l-9.35,2.27c-1.04,0.25-1.78,1.19-1.78,2.27v9.5h-5.41c-1.29,0-2.33,1.03-2.33,2.32v7.99
	c0,1.29,1.04,2.33,2.33,2.33h5.41v27.02c0,17.67,4.3,23.09,18.42,23.09c2.8,0,7.28-0.74,10.53-1.34c1.14-0.22,1.95-1.25,1.89-2.4
	l-0.4-7.7C130.44,131.89,129.33,130.94,128.07,130.97"/>
<path fill="#01B4E7" d="M63.53,81.45c-0.17-0.03-0.71-0.05-1.81-0.06c-0.16,0-0.31-0.01-0.48-0.01v0.01
	c-0.35-0.01-0.74-0.01-1.17-0.01c-6.2,0-12.27,3.9-16.07,6.6v-3.81c0-1.29-1.04-2.32-2.33-2.32h-9.35c-1.29,0-2.33,1.03-2.33,2.32
	v56.62c0,1.29,1.04,2.32,2.33,2.32h9.35c1.29,0,2.33-1.03,2.33-2.32v-39.14c2.11-1.76,8.64-6.66,16.42-7.34
	c0.03-0.01,0.05-0.01,0.08-0.02v0.02c4.79,0,7.56,2.22,7.61,6.81v0.53v39.14c0,1.29,1.04,2.32,2.33,2.32h9.35
	c1.29,0,2.33-1.03,2.33-2.32v-9.9V109.8v-7.69C82.13,88.76,76.19,82.14,63.53,81.45"/>
<path fill="#01B4E7" d="M12.03,59.98H2.32C2.24,59.98,2.17,60,2.09,60l-0.01-0.02C2.03,59.99,2,60.01,1.95,60.02
	c-0.21,0.04-0.42,0.1-0.61,0.19c-0.07,0.03-0.13,0.07-0.19,0.1c-0.19,0.11-0.37,0.24-0.52,0.4c-0.04,0.04-0.07,0.08-0.11,0.13
	c-0.14,0.17-0.27,0.37-0.36,0.59c-0.01,0.03-0.01,0.07-0.02,0.1C0.04,61.76,0,62.02,0,62.28c0,0.01-0.01,0.01-0.01,0.02v0.02v78.49
	c0,1.3,1.04,2.32,2.34,2.32h9.71c0.08,0,0.15-0.01,0.23-0.02l0.01,0.02c0.04,0,0.07-0.02,0.12-0.03c0.21-0.04,0.42-0.1,0.61-0.19
	c0.07-0.02,0.13-0.06,0.19-0.09c0.19-0.12,0.36-0.25,0.51-0.4c0.04-0.05,0.07-0.09,0.11-0.13c0.14-0.17,0.27-0.37,0.36-0.59
	c0.01-0.02,0.01-0.06,0.02-0.1c0.1-0.23,0.14-0.49,0.14-0.76l0.01-0.01v-0.01V62.31C14.37,61.02,13.33,59.98,12.03,59.98"/>
<path fill="#01B4E7" d="M329.02,93.15c6.66,0,12.85,1.51,17.92,1.97c0.64,0.07,1.28-0.14,1.76-0.56c0.47-0.41,0.76-1.01,0.79-1.65
	l0.31-7.77c0.04-1.18-0.8-2.21-1.96-2.38c-4.53-0.73-11.76-2.38-18.81-2.38c-19.11,0-27.63,9.81-27.63,31.81
	c0,0.16,0,0.31,0.01,0.47h-0.01c0,21.99,8.52,31.8,27.63,31.8c7.05,0,14.28-1.64,18.81-2.36c1.16-0.18,2-1.21,1.96-2.39l-0.31-7.77
	c-0.02-0.62-0.32-1.24-0.79-1.65c-0.48-0.43-1.12-0.62-1.76-0.55c-5.08,0.44-11.26,1.96-17.92,1.96c-8.56,0-12.34-3.75-13.19-13.89
	c-0.01-0.2-0.04-0.4-0.05-0.61c-0.02-0.38-0.05-0.79-0.07-1.21c-0.02-0.42-0.04-0.85-0.05-1.31c-0.02-0.29-0.02-0.61-0.02-0.91
	c-0.01-0.52-0.02-1.03-0.02-1.57C315.63,98.13,319.14,93.15,329.02,93.15"/>
<path fill="#01B4E7" d="M393.71,130.97c-1.89,0.08-5.39,0.24-7.62,0.24c-6.08,0-6.39-2.99-6.39-11.67V94.49h14.25
	c1.29,0,2.32-1.04,2.32-2.33v-7.99c0-1.29-1.03-2.32-2.32-2.32H379.7V70.07c0-0.73-0.34-1.39-0.9-1.84
	c-0.56-0.44-1.29-0.59-1.98-0.43l-9.35,2.27c-1.04,0.25-1.77,1.19-1.77,2.27v9.5h-5.41c-1.29,0-2.33,1.03-2.33,2.32v7.99
	c0,1.29,1.04,2.33,2.33,2.33h5.41v27.02c0,17.67,4.3,23.09,18.42,23.09c2.8,0,7.29-0.74,10.53-1.34c1.14-0.22,1.94-1.25,1.89-2.4
	l-0.4-7.7C396.09,131.89,394.96,130.94,393.71,130.97"/>
<path fill="#01B4E7" d="M270.19,80.38c-7.05,0-18.35,1.65-22.89,2.38c-1.16,0.17-2,1.2-1.96,2.38l0.31,7.77
	c0.02,0.64,0.32,1.24,0.79,1.65c0.48,0.43,1.12,0.63,1.76,0.56c5.07-0.46,14.58-1.24,21.25-1.24c4.84,0,7.62,2.69,7.62,7.37v3.69
	l-15.22,1.22c-14.58,1.09-20.52,6.48-20.52,18.67c0,12.49,6.49,19.62,17.81,19.62c9.39,0,19.92-4.24,20.01-4.28
	c2.25,1.72,4.51,3.21,9.26,3.88c0.66,0.09,1.34-0.11,1.85-0.55c0.5-0.43,0.8-1.08,0.8-1.76v-40.63
	C291.06,86.98,284.44,80.38,270.19,80.38 M277.06,129.98c-0.1,0.04-8.88,2.47-15.35,2.47c-5.45,0-6.27-5.03-6.27-7.99
	c0-4.84,2.61-7.35,8.1-7.87l13.51-0.71v14.1H277.06z"/>
<path fill="#01B4E7" d="M190.32,100.01c0-12.48-5.82-19.63-23.47-19.63c-0.8,0-1.54,0.04-2.26,0.07
	c-17.49,0.77-25.36,10.64-25.36,31.73c0,0.17,0.01,0.32,0.01,0.47h-0.01c0,7.23,0.64,13.31,2.28,18.13
	c2.65,9.29,10.68,13.67,19.95,13.67c0.94,0,1.97-0.02,3.04-0.08c0.77-0.02,1.55-0.06,2.36-0.12v-0.02c6.49-0.48,14-1.58,17.49-2.14
	c1.16-0.17,2-1.21,1.96-2.39l-0.31-7.77c-0.02-0.62-0.32-1.25-0.79-1.66c-0.48-0.42-1.12-0.62-1.76-0.55
	c-4.37,0.39-12.01,1.03-18.3,1.18c-5.98,0-9.29-2.41-10.74-8.36l-0.46-2.65l15.85-1.22C184.38,117.59,190.32,112.2,190.32,100.01
	 M153.54,108.97c0.02-0.46,0.05-0.91,0.07-1.35l0.05-0.57c0.63-7.59,2.86-11.87,7.41-13.59c1.73-0.51,3.7-0.92,5.78-0.92
	c9.16,0,9.35,4.87,9.35,7.84c0,4.84-2.61,7.35-8.1,7.87L153.54,108.97z"/>
<path fill="#01B4E7" d="M233.05,81.39c-6.18,0.37-12.27,3.9-16.07,6.59v-3.8c0-1.29-1.04-2.32-2.33-2.32h-9.35
	c-1.29,0-2.33,1.03-2.33,2.32v56.62c0,1.29,1.04,2.32,2.33,2.32h9.35c1.29,0,2.33-1.03,2.33-2.32v-39.14
	c2.11-1.76,8.64-6.66,16.42-7.34c1.19-0.1,2.12-1.11,2.12-2.32v-8.3c0-0.65-0.26-1.25-0.74-1.69
	C234.32,81.57,233.68,81.33,233.05,81.39"/>
<rect x="675.43" y="0" fill="#01B4E7" width="2.83" height="215.96"/>
</svg>
