<?xml version="1.0" encoding="utf-8"?>
<svg version="1.2" xmlns="http://www.w3.org/2000/svg" x="0px" y="0px" viewBox="0 0 650.49 215.96" overflow="visible" xml:space="preserve">
<path fill="#F7A81B" d="M574.47,104.61l-0.02-0.3l-0.23-0.13c-4.58-2.78-10.58-4.34-16.45-4.47c-0.12-0.78-0.85-6.28-0.94-7.06
	c5.61-1.59,10.99-4.64,14.76-8.54l0.2-0.18l-0.06-0.3c-0.28-2.09-1.07-5.01-1.8-6.77l-0.12-0.26l-0.28-0.07
	c-5.16-1.47-11.35-1.44-17.02,0c-0.27-0.73-2.37-5.8-2.67-6.51c5-3.05,9.39-7.37,12.02-12.05l0.14-0.23l-0.11-0.29
	c-0.76-1.8-2.28-4.41-3.49-6.06l-0.17-0.23h-0.31c-5.31-0.12-11.25,1.51-16.48,4.33c-0.46-0.64-3.87-5.07-4.33-5.69
	c4.08-4.2,7.19-9.53,8.53-14.74l0.08-0.29l-0.2-0.22c-1.21-1.6-3.33-3.75-4.92-5l-0.22-0.17l-0.3,0.04
	c-5.22,1.32-10.53,4.45-14.74,8.5c-0.64-0.49-5.06-3.95-5.7-4.47c2.82-4.97,4.46-10.72,4.46-16.02c0-0.15-0.03-0.72-0.03-0.72
	l-0.23-0.17c-1.63-1.28-4.21-2.76-6.09-3.52l-0.26-0.09l-0.24,0.13c-4.69,2.61-8.99,6.97-12,11.96c-0.76-0.29-6.13-2.55-6.84-2.86
	c0.71-2.82,1.15-5.72,1.15-8.61c0-2.92-0.35-5.79-1.15-8.39l-0.07-0.27l-0.29-0.11c-1.77-0.76-4.61-1.54-6.71-1.84l-0.31-0.05
	l-0.19,0.2c-3.88,3.76-6.92,9.12-8.53,14.74c-0.8-0.13-6.36-0.82-7.21-0.91c-0.07-5.83-1.64-11.79-4.41-16.43l-0.14-0.26l-0.29-0.01
	c-2-0.25-5.05-0.25-7.01,0l-0.31,0.01l-0.14,0.26c-2.75,4.59-4.3,10.55-4.4,16.41c-0.81,0.11-6.46,0.79-7.28,0.93
	c-1.61-5.65-4.67-11.03-8.53-14.77l-0.22-0.22l-0.31,0.05c-2.08,0.31-4.96,1.08-6.73,1.8l-0.27,0.12l-0.11,0.27
	c-0.73,2.64-1.12,5.55-1.12,8.49c0,2.84,0.45,5.76,1.12,8.55c-0.71,0.3-6.13,2.64-6.86,2.93c-3.04-5-7.35-9.39-12.03-12.03
	l-0.25-0.15l-0.3,0.1c-1.8,0.79-4.4,2.29-6.04,3.53l-0.26,0.16c0,0,0,0.63,0,0.78c0,5.25,1.63,11.01,4.42,16.02
	c-0.61,0.5-4.69,3.69-5.3,4.19c-4.2-4.06-9.52-7.19-14.76-8.55l-0.27-0.05l-0.2,0.19c-1.61,1.21-3.77,3.33-5.01,4.93l-0.18,0.23
	l0.07,0.28c1.31,5.21,4.44,10.54,8.49,14.78c-0.44,0.62-4,5.25-4.49,5.89c-5.08-2.84-11.01-4.52-16.43-4.44l-0.27,0.01l-0.18,0.24
	c-1.19,1.58-2.69,4.13-3.51,6.07l-0.12,0.25l0.14,0.27c2.6,4.66,7,9.02,12.02,12.07c-0.27,0.72-2.33,5.74-2.65,6.46
	c-5.77-1.43-11.93-1.45-17.06,0.05l-0.28,0.07l-0.1,0.25c-0.76,1.8-1.54,4.64-1.84,6.78l-0.04,0.29l0.21,0.23
	c3.75,3.85,9.13,6.9,14.75,8.46c-0.12,0.8-0.84,6.35-0.94,7.11c-5.84,0.11-11.86,1.66-16.45,4.41l-0.25,0.14l-0.03,0.3
	c-0.12,1.01-0.19,2.26-0.19,3.52c0,1.25,0.08,2.49,0.19,3.5l0.03,0.29l0.25,0.13c4.59,2.75,10.56,4.32,16.44,4.41
	c0.12,0.8,0.9,6.51,1,7.29c-5.64,1.65-10.98,4.74-14.73,8.59l-0.2,0.24l0.03,0.26c0.33,2.11,1.1,5.01,1.83,6.76l0.12,0.26l0.27,0.09
	c5.2,1.49,11.36,1.42,17.07,0c0.29,0.72,2.5,5.77,2.81,6.5c-5,3-9.38,7.33-12.03,12.01l-0.12,0.26l0.1,0.27
	c0.77,1.84,2.3,4.44,3.52,6.06l0.18,0.23l0.26,0.01c5.37,0.08,11.3-1.51,16.45-4.36c0.48,0.6,3.96,5.14,4.42,5.76
	c-4.04,4.14-7.18,9.44-8.52,14.73l-0.07,0.27l0.17,0.23c1.24,1.58,3.37,3.7,4.95,4.98l0.23,0.2l0.28-0.09
	c5.21-1.3,10.51-4.4,14.76-8.48c0.65,0.5,5.15,3.97,5.82,4.46c-2.77,5.09-4.39,10.89-4.39,16.18c0,0.11,0,0.59,0,0.59l0.26,0.2
	c1.57,1.19,4.13,2.65,6.04,3.51l0.26,0.1l0.28-0.13c4.69-2.62,9.03-7.02,12.07-12.08c0.71,0.29,5.65,2.3,6.38,2.58
	c-0.71,2.79-1.11,5.66-1.11,8.5c0,2.97,0.39,5.88,1.14,8.49l0.07,0.28l0.29,0.11c1.78,0.76,4.64,1.54,6.74,1.88l0.31,0.04l0.2-0.23
	c3.89-3.78,6.92-9.16,8.44-14.72c0.82,0.13,6.51,0.94,7.3,1.02c0.12,5.88,1.69,11.85,4.45,16.41l0.12,0.25l0.31,0.04
	c2.02,0.26,5.03,0.26,7.01,0l0.29-0.04l0.14-0.25c2.73-4.56,4.3-10.54,4.45-16.44c0.79-0.11,6.12-0.86,6.92-0.99
	c1.57,5.66,4.63,10.99,8.52,14.77l0.21,0.19l0.26-0.02c2.12-0.34,5-1.08,6.79-1.81l0.26-0.13l0.09-0.26c0.75-2.63,1.1-5.52,1.1-8.48
	c0-2.87-0.4-5.8-1.1-8.61c0.73-0.28,5.9-2.51,6.62-2.84c3.04,5.02,7.37,9.41,12.04,12.05l0.23,0.12l0.28-0.1
	c1.86-0.76,4.48-2.28,6.09-3.54l0.23-0.14c0,0,0.02-0.62,0.02-0.79c0-5.17-1.64-10.95-4.36-16.01c0.61-0.48,4.88-3.8,5.49-4.29
	c4.26,4.05,9.58,7.17,14.79,8.51l0.28,0.08l0.21-0.2c1.59-1.25,3.75-3.39,4.99-4.94l0.19-0.25l-0.1-0.25
	c-1.3-5.2-4.4-10.52-8.46-14.77c0.47-0.63,3.92-5.15,4.38-5.79c5.16,2.84,11.09,4.47,16.43,4.35h0.29l0.18-0.22
	c1.28-1.63,2.75-4.18,3.52-6.1l0.12-0.24l-0.14-0.26c-2.55-4.59-6.91-8.95-11.91-12.1c0.29-0.72,2.33-5.7,2.63-6.42
	c5.67,1.46,11.82,1.51,17,0l0.25-0.09l0.12-0.26c0.76-1.83,1.53-4.65,1.85-6.75l0.03-0.29l-0.22-0.22c-3.75-3.89-9.1-6.9-14.67-8.5
	c0.12-0.78,0.88-6.13,0.96-6.91c5.91-0.1,11.91-1.68,16.49-4.44l0.23-0.15l0.02-0.31c0.14-0.97,0.19-2.25,0.19-3.5
	C574.66,106.83,574.61,105.59,574.47,104.61z M466.77,188.22c-44.58,0-80.88-36.29-80.88-80.9c0-44.6,36.29-80.89,80.88-80.89
	c44.61,0,80.88,36.29,80.88,80.89C547.66,151.93,511.38,188.22,466.77,188.22z"/>
<path fill="#F7A81B" d="M466.77,36.16c-39.22,0-71.14,31.93-71.14,71.16c0,39.25,31.92,71.17,71.14,71.17
	c39.23,0,71.17-31.92,71.17-71.17C537.94,68.08,506,36.16,466.77,36.16z M475.73,47.6c0.69-0.56,1.59-0.38,2.49-0.19
	c14.3,3.46,24.8,9.5,35.04,20.27c0.73,0.77,1.12,1.49,1.12,2.12c0,0.06-0.02,0.16-0.02,0.25c-0.22,0.98-1.31,1.5-2.29,1.97
	l-29.94,14.5c-1.18,0.56-2.28,0.61-3.15,0.08c-0.88-0.51-1.43-1.49-1.53-2.78l-2.41-33.17C474.94,49.06,475.15,48.09,475.73,47.6z
	 M420.15,67.92h0.02c10.24-10.76,20.72-16.82,35.02-20.25c0.88-0.2,1.83-0.37,2.46,0.19c0.61,0.47,0.82,1.45,0.71,3.04l-2.42,33.16
	c-0.08,1.28-0.61,2.28-1.5,2.77c-0.87,0.52-2.01,0.5-3.15-0.07l-29.92-14.49c-0.98-0.48-2.12-1-2.32-1.99
	C418.95,69.62,419.28,68.82,420.15,67.92z M413.04,129.39c-1.3,0.89-2.26,1.21-2.99,0.94c-0.82-0.28-1.09-1.18-1.35-2.06
	c-4.23-14.12-4.23-26.24-0.05-40.48c0.36-1.22,0.88-1.89,1.53-2.13c0.96-0.34,1.96,0.36,2.86,0.98l27.5,18.71
	c1.04,0.69,1.65,1.65,1.65,2.69c0,1-0.61,1.96-1.6,2.69L413.04,129.39z M458.19,168.33c-0.66,0.53-1.58,0.37-2.49,0.14
	c-14.29-3.41-24.8-9.46-35.02-20.24c-0.75-0.77-1.1-1.45-1.1-2.06c0-0.11,0-0.18,0.02-0.3c0.14-0.94,1.3-1.5,2.26-1.96l29.94-14.53
	c1.17-0.55,2.3-0.57,3.18-0.05c0.86,0.51,1.4,1.48,1.5,2.75l2.42,33.23C458.99,166.88,458.76,167.85,458.19,168.33z M466.72,126.91
	c-10.72,0-19.44-8.72-19.44-19.43c0-6.54,3.26-12.62,8.74-16.23c1.8-1.21,4.24-0.69,5.43,1.1c1.19,1.81,0.71,4.25-1.11,5.44
	c-3.27,2.15-5.21,5.77-5.21,9.68c0,6.38,5.2,11.59,11.59,11.59c6.4,0,11.6-5.21,11.6-11.59c0-3.91-1.94-7.55-5.22-9.7
	c-1.81-1.2-2.3-3.63-1.1-5.44c1.19-1.79,3.63-2.31,5.43-1.11c5.47,3.62,8.75,9.69,8.75,16.25
	C486.17,118.19,477.44,126.91,466.72,126.91z M513.3,147.84c-10.2,10.74-20.64,16.78-35.02,20.23c-1.22,0.31-2.06,0.21-2.58-0.22
	c-0.75-0.63-0.66-1.89-0.58-2.98l2.39-33.18c0.15-1.29,0.66-2.27,1.57-2.81c0.88-0.48,2.01-0.44,3.13,0.1l29.95,14.5
	c1.4,0.69,2.14,1.37,2.29,2.11C514.57,146.42,513.96,147.16,513.3,147.84z M523.39,85.51c0.81,0.27,1.12,1.16,1.37,2.04
	c4.21,14.14,4.21,26.24,0,40.49c-0.34,1.23-0.83,1.9-1.49,2.16c-0.94,0.29-1.97-0.39-2.83-1.02l-27.53-18.69
	c-1.06-0.71-1.68-1.67-1.68-2.7c0-1.01,0.61-1.97,1.68-2.71l27.53-18.66C521.69,85.53,522.66,85.25,523.39,85.51z"/>
<path fill="#17458F" d="M167.35,133.15l0.41,7.7c0.06,1.15-0.76,2.19-1.88,2.4c-3.25,0.59-7.72,1.33-10.53,1.33
	c-14.11,0-18.41-5.4-18.41-23.08V94.49h-5.41c-1.29,0-2.33-1.05-2.33-2.34v-7.99c0-1.29,1.04-2.32,2.33-2.32h5.41v-9.5
	c0-1.08,0.74-2.01,1.77-2.26l9.35-2.28c0.69-0.16,1.42-0.01,1.98,0.43c0.56,0.45,0.89,1.12,0.89,1.83v11.78h14.26
	c1.27,0,2.31,1.03,2.31,2.32v7.99c0,1.29-1.04,2.34-2.31,2.34h-14.26v25.04c0,8.66,0.3,11.67,6.38,11.67c2.24,0,5.75-0.15,7.64-0.25
	C166.18,130.92,167.31,131.85,167.35,133.15z"/>
<path fill="#17458F" d="M95.7,80.37c-19.1,0-27.62,9.8-27.62,31.8c0,22.31,8.52,32.27,27.62,32.27c19,0,27.48-9.96,27.48-32.27
	C123.18,90.46,114.45,80.37,95.7,80.37z M95.7,131.8c-11.26,0-13.39-6.89-13.39-19.64c0-14.06,3.51-19.03,13.39-19.03
	c9.53,0,13.25,5.33,13.25,19.03C108.95,124.6,106.78,131.8,95.7,131.8z"/>
<path fill="#17458F" d="M332.12,82.74c-0.43-0.57-1.1-0.9-1.82-0.9h-9.09c-1.05,0-1.96,0.71-2.24,1.73l-12.17,45.9h-0.94
	l-12.18-45.9c-0.26-1.02-1.19-1.73-2.25-1.73h-9.06c-0.73,0-1.41,0.33-1.85,0.9c-0.43,0.58-0.59,1.31-0.41,2l13.4,51.48
	c0.67,2.55,3.03,6.87,7.7,6.87h2.6c-0.23,0.87-0.46,1.79-0.71,2.58l-0.12,0.39c-0.73,2.37-1.82,5.96-8.45,5.96l-11.59-0.71
	c-0.67-0.05-1.3,0.19-1.77,0.66c-0.47,0.46-0.73,1.1-0.7,1.77l0.28,6.07c0.04,1.03,0.76,1.9,1.77,2.15
	c3.42,0.85,9.94,1.83,15.32,2.03c0.26,0.02,0.49,0.02,0.74,0.02l0,0c8.74,0,14.68-5.66,17.68-16.8c3.47-13.05,7.81-29.84,10.99-42.1
	c1.44-5.52,2.67-10.27,3.56-13.66l1.75-6.68C332.73,84.05,332.56,83.31,332.12,82.74z"/>
<path fill="#17458F" d="M59.55,139.84l-14.9-33.65c9.7-4.81,14.41-11.95,14.41-21.82c0-11.82-5.01-25.94-28.92-25.94
	c0,0-0.67-0.01-1.94-0.01c-3.7,0-13.66,0.14-26.13,1.55C0.89,60.1,0,61.09,0,62.28v78.49c0,1.29,1.05,2.32,2.35,2.32h9.7
	c1.28,0,2.31-1.03,2.31-2.32v-31c3.24,0.23,9.25,0.6,16.17,0.65l13.91,31.29c0.35,0.84,1.2,1.38,2.12,1.38h10.85
	c0.79,0,1.52-0.39,1.96-1.05C59.79,141.38,59.86,140.55,59.55,139.84z M29.43,97.25c-7.07,0.08-12.33-0.2-15.07-0.39v-24.2
	c1.65-0.33,4.91-0.76,10.62-0.76h5.12c10.41,0,14.12,6.58,14.12,12.73C44.22,92.31,38.55,97.15,29.43,97.25z"/>
<path fill="#17458F" d="M203.59,80.37c-7.05,0-18.36,1.64-22.89,2.36c-1.14,0.18-2.01,1.21-1.94,2.39l0.29,7.77
	c0.03,0.62,0.33,1.24,0.79,1.65c0.49,0.42,1.13,0.62,1.77,0.56c5.06-0.45,14.58-1.23,21.24-1.23c4.84,0,7.62,2.68,7.62,7.36v3.69
	l-15.22,1.22c-14.57,1.09-20.51,6.48-20.51,18.67c0,12.48,6.49,19.62,17.79,19.62c9.4,0,19.91-4.24,20.01-4.28
	c2.25,1.73,4.51,3.21,9.26,3.89c0.66,0.09,1.34-0.11,1.85-0.56c0.51-0.44,0.8-1.07,0.8-1.76v-40.61
	C224.46,86.97,217.83,80.37,203.59,80.37z M210.46,129.96c-0.1,0.02-8.88,2.47-15.36,2.47c-5.44,0-6.25-5.02-6.25-8
	c0-4.83,2.6-7.34,8.1-7.86l13.51-0.72V129.96z"/>
<path fill="#17458F" d="M269.88,81.37c-6.18,0.37-12.26,3.9-16.05,6.59v-3.81c0-1.29-1.04-2.32-2.34-2.32h-9.34
	c-1.3,0-2.34,1.03-2.34,2.32v56.62c0,1.29,1.04,2.32,2.34,2.32h9.34c1.3,0,2.34-1.03,2.34-2.32v-39.13
	c2.1-1.76,8.63-6.66,16.41-7.34c1.2-0.11,2.12-1.11,2.12-2.32v-8.29c0-0.65-0.26-1.25-0.74-1.68
	C271.16,81.56,270.52,81.32,269.88,81.37z"/>
<rect x="611.16" y="0" fill="#7F7F7F" width="2.83" height="215.96"/>
</svg>
