<svg version="1.1" xmlns="http://www.w3.org/2000/svg" viewBox="0 0 683.15 257.95" overflow="visible"><path fill="#d41367" d="M680.41 107.48l-.02-.3-.23-.13c-4.58-2.78-10.58-4.34-16.46-4.47-.11-.78-.85-6.28-.94-7.07 5.61-1.59 10.99-4.64 14.77-8.54l.2-.18-.06-.3c-.28-2.09-1.07-5.01-1.79-6.77l-.12-.26-.28-.07c-5.17-1.48-11.35-1.44-17.03 0-.27-.73-2.37-5.8-2.67-6.52 5-3.05 9.39-7.37 12.02-12.05l.14-.23-.1-.29c-.76-1.8-2.29-4.41-3.5-6.07l-.17-.23h-.31c-5.32-.11-11.25 1.52-16.48 4.33-.46-.64-3.87-5.08-4.33-5.69 4.08-4.2 7.19-9.53 8.53-14.75l.08-.29-.2-.22c-1.21-1.6-3.33-3.75-4.92-5l-.22-.17-.3.05c-5.23 1.32-10.53 4.45-14.74 8.5-.65-.49-5.07-3.95-5.71-4.48 2.81-4.97 4.46-10.72 4.46-16.02 0-.15-.02-.72-.02-.72l-.23-.17c-1.63-1.28-4.21-2.76-6.09-3.53l-.26-.09-.23.13c-4.69 2.61-8.99 6.97-12.01 11.97-.76-.29-6.13-2.56-6.85-2.86.71-2.81 1.15-5.72 1.15-8.62 0-2.92-.35-5.79-1.15-8.39l-.06-.27-.29-.11c-1.77-.76-4.61-1.54-6.71-1.84l-.31-.05-.19.2c-3.88 3.76-6.92 9.12-8.54 14.74-.8-.13-6.36-.82-7.21-.91-.08-5.83-1.64-11.8-4.42-16.43l-.14-.26-.29-.01c-2-.26-5.05-.26-7.01 0l-.32.01-.14.26c-2.75 4.59-4.3 10.55-4.4 16.42-.8.1-6.46.79-7.27.92-1.62-5.65-4.67-11.03-8.53-14.77l-.22-.22-.32.04c-2.08.31-4.96 1.09-6.73 1.81l-.27.12-.1.27c-.73 2.64-1.12 5.55-1.12 8.5 0 2.84.46 5.77 1.12 8.56-.71.3-6.14 2.63-6.86 2.93-3.04-5-7.35-9.39-12.03-12.04l-.26-.14-.29.1c-1.79.79-4.4 2.29-6.05 3.53l-.25.16v.78c0 5.24 1.62 11.02 4.42 16.02-.61.5-4.69 3.7-5.3 4.19-4.21-4.06-9.52-7.19-14.77-8.55l-.27-.05-.2.19c-1.61 1.21-3.77 3.32-5.01 4.93l-.18.23.07.28c1.31 5.21 4.44 10.54 8.5 14.78-.44.62-4 5.26-4.49 5.9-5.09-2.85-11.01-4.52-16.44-4.45l-.27.01-.18.25c-1.19 1.58-2.69 4.13-3.51 6.07l-.11.26.14.26c2.6 4.67 7.01 9.02 12.03 12.07-.27.72-2.33 5.74-2.65 6.47-5.78-1.43-11.93-1.45-17.07.05l-.28.07-.11.25c-.76 1.8-1.54 4.64-1.84 6.78l-.04.29.2.23c3.75 3.86 9.13 6.91 14.76 8.47-.12.8-.85 6.35-.94 7.12-5.85.11-11.87 1.66-16.46 4.41l-.26.14-.02.3c-.12 1.01-.19 2.26-.19 3.52 0 1.26.07 2.5.19 3.5l.02.29.26.13c4.59 2.75 10.56 4.33 16.44 4.41.11.8.9 6.51 1 7.3-5.65 1.66-10.98 4.74-14.74 8.59l-.2.24.02.26c.32 2.11 1.1 5.02 1.83 6.77l.11.26.26.09c5.21 1.48 11.36 1.42 17.08 0 .29.72 2.51 5.77 2.81 6.5-5 2.99-9.38 7.33-12.03 12.01l-.13.26.1.27c.77 1.84 2.3 4.44 3.52 6.06l.19.23.26.01c5.38.07 11.31-1.52 16.46-4.36.48.61 3.96 5.14 4.42 5.76-4.05 4.14-7.19 9.45-8.53 14.74l-.07.27.17.23c1.24 1.58 3.37 3.7 4.94 4.98l.23.2.28-.1c5.21-1.3 10.51-4.4 14.77-8.48.64.5 5.15 3.97 5.81 4.46-2.77 5.09-4.39 10.9-4.39 16.18v.59l.26.2c1.57 1.19 4.13 2.65 6.04 3.51l.26.1.27-.13c4.7-2.62 9.04-7.02 12.08-12.08.7.29 5.65 2.29 6.38 2.59-.71 2.79-1.12 5.66-1.12 8.5 0 2.98.39 5.88 1.15 8.5l.07.28.29.11c1.78.76 4.64 1.54 6.74 1.88l.31.04.2-.23c3.89-3.78 6.92-9.16 8.45-14.73.82.14 6.51.94 7.3 1.03.11 5.87 1.69 11.86 4.45 16.42l.13.25.31.04c2.02.26 5.03.26 7.01 0l.29-.04.14-.25c2.74-4.56 4.3-10.55 4.45-16.45.8-.11 6.13-.85 6.92-.99 1.57 5.66 4.63 11 8.52 14.77l.22.19.26-.02c2.12-.34 5-1.09 6.8-1.81l.25-.13.09-.26c.76-2.63 1.1-5.53 1.1-8.49 0-2.87-.4-5.8-1.1-8.62.73-.28 5.9-2.51 6.62-2.84 3.05 5.02 7.37 9.42 12.04 12.05l.23.12.28-.1c1.85-.77 4.48-2.28 6.09-3.54l.23-.14s.02-.62.02-.79c0-5.18-1.64-10.96-4.36-16.01.61-.49 4.88-3.8 5.49-4.3 4.27 4.05 9.58 7.17 14.8 8.51l.28.08.22-.2c1.59-1.25 3.76-3.39 5-4.94l.19-.25-.1-.26c-1.29-5.2-4.4-10.52-8.46-14.78.47-.62 3.92-5.15 4.38-5.8 5.16 2.84 11.1 4.48 16.43 4.36h.3l.17-.22c1.27-1.63 2.75-4.18 3.52-6.11l.12-.25-.14-.26c-2.55-4.58-6.91-8.95-11.92-12.1.29-.71 2.33-5.7 2.64-6.42 5.66 1.46 11.83 1.51 17 0l.25-.08.12-.26c.76-1.82 1.53-4.66 1.85-6.76l.03-.29-.22-.22c-3.75-3.89-9.1-6.91-14.68-8.5.12-.78.88-6.13.95-6.92 5.92-.1 11.92-1.67 16.5-4.44l.23-.14.02-.31c.14-.97.19-2.25.19-3.5.04-1.29-.02-2.52-.16-3.51m-107.74 83.65c-44.6 0-80.91-36.31-80.91-80.93 0-44.62 36.31-80.92 80.91-80.92 44.63 0 80.92 36.3 80.92 80.92 0 44.62-36.29 80.93-80.92 80.93"/><path fill="#d41367" d="M572.67 39c-39.23 0-71.17 31.94-71.17 71.19 0 39.26 31.94 71.2 71.17 71.2 39.25 0 71.2-31.94 71.2-71.2 0-39.24-31.95-71.19-71.2-71.19m8.96 11.45c.68-.56 1.6-.38 2.49-.2 14.3 3.47 24.81 9.51 35.06 20.28.73.77 1.12 1.48 1.12 2.12 0 .06-.02.16-.02.25-.22.98-1.31 1.51-2.29 1.97l-29.95 14.51c-1.18.56-2.28.61-3.14.07-.88-.5-1.43-1.49-1.53-2.78l-2.42-33.17c-.11-1.58.11-2.56.68-3.05m-55.6 20.34h.02c10.25-10.76 20.73-16.83 35.04-20.26.88-.2 1.82-.37 2.46.2.61.47.82 1.45.7 3.04l-2.42 33.17c-.08 1.28-.61 2.28-1.5 2.77-.88.52-2.02.5-3.15-.07l-29.93-14.5c-.98-.49-2.12-1-2.32-1.99-.1-.67.23-1.46 1.1-2.36m-7.11 61.49c-1.3.89-2.26 1.21-2.99.94-.81-.28-1.09-1.18-1.34-2.06-4.24-14.13-4.24-26.25-.05-40.5.36-1.22.87-1.9 1.52-2.13.96-.34 1.96.36 2.86.98l27.52 18.72c1.04.68 1.64 1.65 1.64 2.69 0 1-.61 1.96-1.6 2.69l-27.56 18.67zm45.16 38.95c-.66.54-1.57.38-2.48.14-14.3-3.41-24.81-9.46-35.04-20.25-.74-.77-1.1-1.45-1.1-2.06 0-.11 0-.18.02-.3.14-.94 1.29-1.49 2.26-1.96l29.95-14.53c1.17-.55 2.3-.58 3.18-.05.86.51 1.4 1.48 1.51 2.75l2.42 33.25c.1 1.57-.14 2.53-.72 3.01m8.54-41.44c-10.73 0-19.45-8.72-19.45-19.44 0-6.55 3.26-12.62 8.75-16.24 1.8-1.21 4.24-.69 5.43 1.11 1.19 1.81.71 4.25-1.1 5.44a11.533 11.533 0 00-5.22 9.69c0 6.38 5.21 11.59 11.59 11.59 6.4 0 11.6-5.21 11.6-11.59 0-3.92-1.94-7.55-5.23-9.7-1.81-1.19-2.3-3.63-1.1-5.44 1.19-1.79 3.64-2.31 5.43-1.12 5.47 3.62 8.75 9.69 8.75 16.25.01 10.73-8.72 19.45-19.45 19.45m46.6 20.95c-10.21 10.74-20.65 16.79-35.04 20.24-1.22.31-2.06.21-2.59-.22-.75-.63-.65-1.9-.58-2.98l2.38-33.2c.16-1.29.67-2.27 1.57-2.81.88-.47 2.02-.44 3.13.1l29.96 14.51c1.4.69 2.15 1.37 2.29 2.11.15.82-.45 1.56-1.12 2.25m10.09-62.36c.81.27 1.13 1.16 1.37 2.05 4.21 14.14 4.21 26.24 0 40.5-.34 1.22-.83 1.9-1.48 2.17-.94.29-1.97-.38-2.83-1.03l-27.55-18.69c-1.06-.71-1.68-1.67-1.68-2.7 0-1.01.61-1.97 1.68-2.71l27.55-18.67c1.24-.9 2.22-1.18 2.94-.92M167.85 133.84c-1.89.09-5.39.25-7.64.25-6.07 0-6.37-3.01-6.37-11.67V97.36h14.24c1.3 0 2.33-1.04 2.33-2.33v-7.99a2.32 2.32 0 00-2.33-2.33h-14.24V72.93c0-.72-.34-1.39-.91-1.83-.56-.44-1.28-.59-1.97-.43l-9.37 2.27c-1.03.25-1.76 1.19-1.76 2.27v9.5h-5.41a2.32 2.32 0 00-2.33 2.33v7.99c0 1.29 1.04 2.33 2.33 2.33h5.41v27.03c0 17.68 4.3 23.09 18.41 23.09 2.81 0 7.29-.73 10.55-1.33a2.337 2.337 0 001.89-2.41l-.4-7.69c-.07-1.29-1.18-2.24-2.43-2.21M98.57 83.24c-19.11 0-27.64 9.81-27.64 31.81 0 22.33 8.53 32.29 27.64 32.29 19.03 0 27.5-9.96 27.5-32.29.01-21.71-8.73-31.81-27.5-31.81m0 51.45c-11.26 0-13.39-6.89-13.39-19.64 0-14.06 3.5-19.04 13.39-19.04 9.54 0 13.27 5.33 13.27 19.04 0 12.44-2.18 19.64-13.27 19.64M47.5 109.08c9.7-4.81 14.42-11.95 14.42-21.83 0-11.83-5.03-25.96-28.93-25.96 0 0-.68-.01-1.96-.01-3.7 0-13.68.15-26.14 1.55a2.32 2.32 0 00-2.07 2.31v78.53c0 1.28 1.04 2.32 2.33 2.32h9.72c1.29 0 2.32-1.04 2.32-2.32v-31.01c3.25.23 9.25.59 16.17.64l13.91 31.31a2.34 2.34 0 002.12 1.38h10.87c.8 0 1.52-.39 1.96-1.05.43-.67.49-1.5.17-2.21L47.5 109.08zm-15.23-8.95c-7.08.08-12.34-.2-15.07-.39V75.53c1.66-.34 4.91-.76 10.63-.76h5.12c10.41 0 14.11 6.57 14.11 12.73 0 7.69-5.66 12.53-14.79 12.63M435.71 133.84c-1.89.09-5.39.25-7.63.25-6.08 0-6.38-3.01-6.38-11.67V97.36h14.24c1.3 0 2.33-1.04 2.33-2.33v-7.99a2.32 2.32 0 00-2.33-2.33H421.7V72.93c0-.72-.34-1.39-.9-1.83-.57-.44-1.3-.59-1.99-.43l-9.35 2.27c-1.04.25-1.76 1.19-1.76 2.27v9.5h-5.42c-1.29 0-2.33 1.04-2.33 2.33v7.99c0 1.29 1.04 2.33 2.33 2.33h5.42v27.03c0 17.68 4.3 23.09 18.42 23.09 2.8 0 7.28-.73 10.54-1.33a2.355 2.355 0 001.89-2.41l-.4-7.69c-.08-1.29-1.19-2.24-2.44-2.21M371 96.01c6.67 0 12.85 1.51 17.93 1.97.63.07 1.27-.14 1.75-.56.47-.41.76-1.03.79-1.66l.31-7.77c.05-1.18-.8-2.21-1.96-2.38-4.54-.73-11.76-2.37-18.82-2.37-19.11 0-27.64 9.81-27.64 31.81 0 .16.01.31.01.47h-.01c0 22 8.53 31.81 27.64 31.81 7.06 0 14.28-1.64 18.82-2.37 1.16-.18 2-1.21 1.96-2.39l-.31-7.77c-.02-.63-.32-1.24-.79-1.66-.48-.42-1.12-.62-1.75-.55-5.08.45-11.26 1.96-17.93 1.96-8.57 0-12.34-3.75-13.19-13.9-.02-.2-.03-.4-.05-.62-.03-.38-.05-.79-.07-1.2-.02-.43-.04-.86-.05-1.31-.02-.29-.02-.61-.02-.91 0-.52-.02-1.03-.02-1.57 0-14.05 3.51-19.03 13.4-19.03M312.15 83.24c-7.05 0-18.35 1.64-22.88 2.37-1.16.17-2 1.21-1.96 2.39l.3 7.77c.03.63.32 1.24.79 1.65.48.42 1.12.63 1.75.56 5.08-.46 14.59-1.24 21.26-1.24 4.84 0 7.62 2.69 7.62 7.37v3.69l-15.22 1.22c-14.57 1.09-20.52 6.49-20.52 18.68 0 12.49 6.49 19.63 17.81 19.63 9.4 0 19.92-4.24 20.02-4.28 2.25 1.73 4.51 3.22 9.27 3.88.65.1 1.33-.1 1.85-.55.5-.44.8-1.08.8-1.76v-40.64c0-14.14-6.63-20.74-20.89-20.74m6.89 49.61c-.09.03-8.89 2.47-15.35 2.47-5.45 0-6.26-5.03-6.26-8 0-4.84 2.61-7.35 8.11-7.87l13.51-.71v14.11zM206.51 83.24c-7.06 0-18.35 1.64-22.88 2.37-1.16.17-2 1.21-1.96 2.39l.31 7.77c.02.63.32 1.24.79 1.65.48.42 1.12.63 1.75.56 5.07-.46 14.59-1.24 21.26-1.24 4.84 0 7.61 2.69 7.61 7.37v3.69l-15.22 1.22c-14.57 1.09-20.51 6.49-20.51 18.68 0 12.49 6.49 19.63 17.81 19.63 9.4 0 19.92-4.24 20.02-4.28 2.25 1.73 4.51 3.22 9.27 3.88.65.1 1.34-.1 1.85-.55.5-.44.8-1.08.8-1.76v-40.64c-.02-14.14-6.65-20.74-20.9-20.74m6.88 49.61c-.09.03-8.88 2.47-15.35 2.47-5.45 0-6.26-5.03-6.26-8 0-4.84 2.61-7.35 8.11-7.87l13.51-.71v14.11zM272.84 84.25c-6.19.37-12.28 3.91-16.07 6.6v-3.81c0-1.29-1.04-2.33-2.33-2.33h-9.35c-1.29 0-2.33 1.04-2.33 2.33v56.63c0 1.29 1.04 2.33 2.33 2.33h9.35c1.29 0 2.33-1.04 2.33-2.33v-39.15c2.11-1.75 8.64-6.65 16.42-7.34a2.32 2.32 0 002.12-2.32v-8.3c0-.64-.26-1.25-.74-1.69-.45-.44-1.1-.68-1.73-.62"/><g fill="#d41367"><path d="M224.89 190.54h4.83v21.63h24.71v-21.63h4.83v48.87h-4.83v-23.03h-24.71v23.03h-4.83v-48.87zM284.88 202.87c11.55 0 16.66 8.96 16.66 18.69s-5.11 18.69-16.66 18.69-16.66-8.96-16.66-18.69 5.11-18.69 16.66-18.69zm0 33.6c7.7 0 11.83-6.65 11.83-14.91s-4.13-14.91-11.83-14.91-11.83 6.65-11.83 14.91 4.13 14.91 11.83 14.91zM307.14 234.23c2.66 1.33 5.88 2.24 9.31 2.24 4.2 0 7.91-2.31 7.91-6.37 0-8.47-17.15-7.14-17.15-17.5 0-7.07 5.74-9.73 11.62-9.73 1.89 0 5.67.42 8.82 1.61l-.42 3.85c-2.31-1.05-5.46-1.68-7.91-1.68-4.55 0-7.7 1.4-7.7 5.95 0 6.65 17.57 5.81 17.57 17.5 0 7.56-7.07 10.15-12.46 10.15-3.43 0-6.86-.42-10.01-1.68l.42-4.34zM352.5 207.49h-8.12v23.1c0 3.22 1.19 5.88 4.76 5.88 1.68 0 2.8-.35 4.06-.84l.28 3.64c-1.05.42-3.22.98-5.39.98-7.84 0-8.12-5.39-8.12-11.9v-20.86h-7v-3.78h7v-8.61l4.41-1.54v10.15h8.12v3.78zM364.82 194.18h-4.41v-5.88h4.41v5.88zm-4.41 9.53h4.41v35.7h-4.41v-35.7zM375.95 212.11c0-2.73 0-5.53-.28-8.4h4.27v6.37h.14c1.47-3.22 4.13-7.21 11.55-7.21 8.82 0 12.18 5.88 12.18 13.72v22.82h-4.41v-21.7c0-6.72-2.38-11.06-8.47-11.06-8.05 0-10.57 7.07-10.57 13.02v19.74h-4.41v-27.3zM443.15 236.47c0 9.94-4.48 18.06-16.73 18.06-4.69 0-8.96-1.33-10.78-1.89l.35-4.41c2.73 1.4 6.65 2.52 10.5 2.52 11.34 0 12.32-8.26 12.32-18.34h-.14c-2.38 5.18-6.3 7-10.85 7-11.41 0-15.05-9.94-15.05-17.85 0-10.85 4.2-18.69 14.7-18.69 4.76 0 7.84.63 11.13 4.9h.14v-4.06h4.41v32.76zm-15.26-.84c7.98 0 10.85-7.56 10.85-14.07 0-8.61-2.52-14.91-10.57-14.91-8.4 0-10.57 7.98-10.57 14.91 0 7 2.8 14.07 10.29 14.07z"/></g></svg>
