<?xml version="1.0" encoding="utf-8"?>
<svg version="1.2" xmlns="http://www.w3.org/2000/svg" xmlns:xlink="http://www.w3.org/1999/xlink"
	 x="0px" y="0px" viewBox="0 0 683.15 257.95" overflow="visible" xml:space="preserve">
<path fill="#D91B5C" d="M680.41,107.48l-0.02-0.3l-0.23-0.13c-4.58-2.78-10.58-4.34-16.46-4.47c-0.11-0.78-0.85-6.28-0.94-7.07
	c5.61-1.59,10.99-4.64,14.77-8.54l0.2-0.18l-0.06-0.3c-0.28-2.09-1.07-5.01-1.79-6.77l-0.12-0.26l-0.28-0.07
	c-5.17-1.48-11.35-1.44-17.03,0c-0.27-0.73-2.37-5.8-2.67-6.52c5-3.05,9.39-7.37,12.02-12.05l0.14-0.23l-0.1-0.29
	c-0.76-1.8-2.29-4.41-3.5-6.07l-0.17-0.23h-0.31c-5.32-0.11-11.25,1.52-16.48,4.33c-0.46-0.64-3.87-5.08-4.33-5.69
	c4.08-4.2,7.19-9.53,8.53-14.75l0.08-0.29l-0.2-0.22c-1.21-1.6-3.33-3.75-4.92-5l-0.22-0.17l-0.3,0.05
	c-5.23,1.32-10.53,4.45-14.74,8.5c-0.65-0.49-5.07-3.95-5.71-4.48c2.81-4.97,4.46-10.72,4.46-16.02c0-0.15-0.02-0.72-0.02-0.72
	l-0.23-0.17c-1.63-1.28-4.21-2.76-6.09-3.53l-0.26-0.09l-0.23,0.13c-4.69,2.61-8.99,6.97-12.01,11.97
	c-0.76-0.29-6.13-2.56-6.85-2.86c0.71-2.81,1.15-5.72,1.15-8.62c0-2.92-0.35-5.79-1.15-8.39l-0.06-0.27l-0.29-0.11
	c-1.77-0.76-4.61-1.54-6.71-1.84l-0.31-0.05l-0.19,0.2c-3.88,3.76-6.92,9.12-8.54,14.74c-0.8-0.13-6.36-0.82-7.21-0.91
	c-0.08-5.83-1.64-11.8-4.42-16.43l-0.14-0.26l-0.29-0.01c-2-0.26-5.05-0.26-7.01,0l-0.32,0.01l-0.14,0.26
	c-2.75,4.59-4.3,10.55-4.4,16.42c-0.8,0.1-6.46,0.79-7.27,0.92c-1.62-5.65-4.67-11.03-8.53-14.77l-0.22-0.22l-0.32,0.04
	c-2.08,0.31-4.96,1.09-6.73,1.81l-0.27,0.12l-0.1,0.27c-0.73,2.64-1.12,5.55-1.12,8.5c0,2.84,0.46,5.77,1.12,8.56
	c-0.71,0.3-6.14,2.63-6.86,2.93c-3.04-5-7.35-9.39-12.03-12.04l-0.26-0.14l-0.29,0.1c-1.79,0.79-4.4,2.29-6.05,3.53l-0.25,0.16v0.78
	c0,5.24,1.62,11.02,4.42,16.02c-0.61,0.5-4.69,3.7-5.3,4.19c-4.21-4.06-9.52-7.19-14.77-8.55l-0.27-0.05l-0.2,0.19
	c-1.61,1.21-3.77,3.32-5.01,4.93l-0.18,0.23l0.07,0.28c1.31,5.21,4.44,10.54,8.5,14.78c-0.44,0.62-4,5.26-4.49,5.9
	c-5.09-2.85-11.01-4.52-16.44-4.45l-0.27,0.01l-0.18,0.25c-1.19,1.58-2.69,4.13-3.51,6.07l-0.11,0.26l0.14,0.26
	c2.6,4.67,7.01,9.02,12.03,12.07c-0.27,0.72-2.33,5.74-2.65,6.47c-5.78-1.43-11.93-1.45-17.07,0.05l-0.28,0.07l-0.11,0.25
	c-0.76,1.8-1.54,4.64-1.84,6.78l-0.04,0.29l0.2,0.23c3.75,3.86,9.13,6.91,14.76,8.47c-0.12,0.8-0.85,6.35-0.94,7.12
	c-5.85,0.11-11.87,1.66-16.46,4.41l-0.26,0.14l-0.02,0.3c-0.12,1.01-0.19,2.26-0.19,3.52c0,1.26,0.07,2.5,0.19,3.5l0.02,0.29
	l0.26,0.13c4.59,2.75,10.56,4.33,16.44,4.41c0.11,0.8,0.9,6.51,1,7.3c-5.65,1.66-10.98,4.74-14.74,8.59l-0.2,0.24l0.02,0.26
	c0.32,2.11,1.1,5.02,1.83,6.77l0.11,0.26l0.26,0.09c5.21,1.48,11.36,1.42,17.08,0c0.29,0.72,2.51,5.77,2.81,6.5
	c-5,2.99-9.38,7.33-12.03,12.01l-0.13,0.26l0.1,0.27c0.77,1.84,2.3,4.44,3.52,6.06l0.19,0.23l0.26,0.01
	c5.38,0.07,11.31-1.52,16.46-4.36c0.48,0.61,3.96,5.14,4.42,5.76c-4.05,4.14-7.19,9.45-8.53,14.74l-0.07,0.27l0.17,0.23
	c1.24,1.58,3.37,3.7,4.94,4.98l0.23,0.2l0.28-0.1c5.21-1.3,10.51-4.4,14.77-8.48c0.64,0.5,5.15,3.97,5.81,4.46
	c-2.77,5.09-4.39,10.9-4.39,16.18v0.59l0.26,0.2c1.57,1.19,4.13,2.65,6.04,3.51l0.26,0.1l0.27-0.13c4.7-2.62,9.04-7.02,12.08-12.08
	c0.7,0.29,5.65,2.29,6.38,2.59c-0.71,2.79-1.12,5.66-1.12,8.5c0,2.98,0.39,5.88,1.15,8.5l0.07,0.28l0.29,0.11
	c1.78,0.76,4.64,1.54,6.74,1.88l0.31,0.04l0.2-0.23c3.89-3.78,6.92-9.16,8.45-14.73c0.82,0.14,6.51,0.94,7.3,1.03
	c0.11,5.87,1.69,11.86,4.45,16.42l0.13,0.25l0.31,0.04c2.02,0.26,5.03,0.26,7.01,0l0.29-0.04l0.14-0.25
	c2.74-4.56,4.3-10.55,4.45-16.45c0.8-0.11,6.13-0.85,6.92-0.99c1.57,5.66,4.63,11,8.52,14.77l0.22,0.19l0.26-0.02
	c2.12-0.34,5-1.09,6.8-1.81l0.25-0.13l0.09-0.26c0.76-2.63,1.1-5.53,1.1-8.49c0-2.87-0.4-5.8-1.1-8.62c0.73-0.28,5.9-2.51,6.62-2.84
	c3.05,5.02,7.37,9.42,12.04,12.05l0.23,0.12l0.28-0.1c1.85-0.77,4.48-2.28,6.09-3.54l0.23-0.14c0,0,0.02-0.62,0.02-0.79
	c0-5.18-1.64-10.96-4.36-16.01c0.61-0.49,4.88-3.8,5.49-4.3c4.27,4.05,9.58,7.17,14.8,8.51l0.28,0.08l0.22-0.2
	c1.59-1.25,3.76-3.39,5-4.94l0.19-0.25l-0.1-0.26c-1.29-5.2-4.4-10.52-8.46-14.78c0.47-0.62,3.92-5.15,4.38-5.8
	c5.16,2.84,11.1,4.48,16.43,4.36h0.3l0.17-0.22c1.27-1.63,2.75-4.18,3.52-6.11l0.12-0.25l-0.14-0.26
	c-2.55-4.58-6.91-8.95-11.92-12.1c0.29-0.71,2.33-5.7,2.64-6.42c5.66,1.46,11.83,1.51,17,0l0.25-0.08l0.12-0.26
	c0.76-1.82,1.53-4.66,1.85-6.76l0.03-0.29l-0.22-0.22c-3.75-3.89-9.1-6.91-14.68-8.5c0.12-0.78,0.88-6.13,0.95-6.92
	c5.92-0.1,11.92-1.67,16.5-4.44l0.23-0.14l0.02-0.31c0.14-0.97,0.19-2.25,0.19-3.5C680.61,109.7,680.55,108.47,680.41,107.48
	 M572.67,191.13c-44.6,0-80.91-36.31-80.91-80.93c0-44.62,36.31-80.92,80.91-80.92c44.63,0,80.92,36.3,80.92,80.92
	C653.59,154.82,617.3,191.13,572.67,191.13"/>
<path fill="#D91B5C" d="M572.67,39c-39.23,0-71.17,31.94-71.17,71.19c0,39.26,31.94,71.2,71.17,71.2c39.25,0,71.2-31.94,71.2-71.2
	C643.87,70.95,611.92,39,572.67,39 M581.63,50.45c0.68-0.56,1.6-0.38,2.49-0.2c14.3,3.47,24.81,9.51,35.06,20.28
	c0.73,0.77,1.12,1.48,1.12,2.12c0,0.06-0.02,0.16-0.02,0.25c-0.22,0.98-1.31,1.51-2.29,1.97l-29.95,14.51
	c-1.18,0.56-2.28,0.61-3.14,0.07c-0.88-0.5-1.43-1.49-1.53-2.78l-2.42-33.17C580.84,51.92,581.06,50.94,581.63,50.45 M526.03,70.79
	h0.02c10.25-10.76,20.73-16.83,35.04-20.26c0.88-0.2,1.82-0.37,2.46,0.2c0.61,0.47,0.82,1.45,0.7,3.04l-2.42,33.17
	c-0.08,1.28-0.61,2.28-1.5,2.77c-0.88,0.52-2.02,0.5-3.15-0.07l-29.93-14.5c-0.98-0.49-2.12-1-2.32-1.99
	C524.83,72.48,525.16,71.69,526.03,70.79 M518.92,132.28c-1.3,0.89-2.26,1.21-2.99,0.94c-0.81-0.28-1.09-1.18-1.34-2.06
	c-4.24-14.13-4.24-26.25-0.05-40.5c0.36-1.22,0.87-1.9,1.52-2.13c0.96-0.34,1.96,0.36,2.86,0.98l27.52,18.72
	c1.04,0.68,1.64,1.65,1.64,2.69c0,1-0.61,1.96-1.6,2.69L518.92,132.28z M564.08,171.23c-0.66,0.54-1.57,0.38-2.48,0.14
	c-14.3-3.41-24.81-9.46-35.04-20.25c-0.74-0.77-1.1-1.45-1.1-2.06c0-0.11,0-0.18,0.02-0.3c0.14-0.94,1.29-1.49,2.26-1.96
	l29.95-14.53c1.17-0.55,2.3-0.58,3.18-0.05c0.86,0.51,1.4,1.48,1.51,2.75l2.42,33.25C564.9,169.79,564.66,170.75,564.08,171.23
	 M572.62,129.79c-10.73,0-19.45-8.72-19.45-19.44c0-6.55,3.26-12.62,8.75-16.24c1.8-1.21,4.24-0.69,5.43,1.11
	c1.19,1.81,0.71,4.25-1.1,5.44c-3.28,2.15-5.22,5.77-5.22,9.69c0,6.38,5.21,11.59,11.59,11.59c6.4,0,11.6-5.21,11.6-11.59
	c0-3.92-1.94-7.55-5.23-9.7c-1.81-1.19-2.3-3.63-1.1-5.44c1.19-1.79,3.64-2.31,5.43-1.12c5.47,3.62,8.75,9.69,8.75,16.25
	C592.08,121.07,583.35,129.79,572.62,129.79 M619.22,150.74c-10.21,10.74-20.65,16.79-35.04,20.24c-1.22,0.31-2.06,0.21-2.59-0.22
	c-0.75-0.63-0.65-1.9-0.58-2.98l2.38-33.2c0.16-1.29,0.67-2.27,1.57-2.81c0.88-0.47,2.02-0.44,3.13,0.1l29.96,14.51
	c1.4,0.69,2.15,1.37,2.29,2.11C620.49,149.31,619.89,150.05,619.22,150.74 M629.31,88.38c0.81,0.27,1.13,1.16,1.37,2.05
	c4.21,14.14,4.21,26.24,0,40.5c-0.34,1.22-0.83,1.9-1.48,2.17c-0.94,0.29-1.97-0.38-2.83-1.03l-27.55-18.69
	c-1.06-0.71-1.68-1.67-1.68-2.7c0-1.01,0.61-1.97,1.68-2.71l27.55-18.67C627.61,88.4,628.59,88.12,629.31,88.38"/>
<path fill="#D91B5C" d="M167.85,133.84c-1.89,0.09-5.39,0.25-7.64,0.25c-6.07,0-6.37-3.01-6.37-11.67V97.36h14.24
	c1.3,0,2.33-1.04,2.33-2.33v-7.99c0-1.29-1.03-2.33-2.33-2.33h-14.24V72.93c0-0.72-0.34-1.39-0.91-1.83
	c-0.56-0.44-1.28-0.59-1.97-0.43l-9.37,2.27c-1.03,0.25-1.76,1.19-1.76,2.27v9.5h-5.41c-1.3,0-2.33,1.04-2.33,2.33v7.99
	c0,1.29,1.04,2.33,2.33,2.33h5.41v27.03c0,17.68,4.3,23.09,18.41,23.09c2.81,0,7.29-0.73,10.55-1.33c1.14-0.22,1.95-1.25,1.89-2.41
	l-0.4-7.69C170.21,134.76,169.1,133.81,167.85,133.84"/>
<path fill="#D91B5C" d="M98.57,83.24c-19.11,0-27.64,9.81-27.64,31.81c0,22.33,8.53,32.29,27.64,32.29c19.03,0,27.5-9.96,27.5-32.29
	C126.08,93.34,117.34,83.24,98.57,83.24 M98.57,134.69c-11.26,0-13.39-6.89-13.39-19.64c0-14.06,3.5-19.04,13.39-19.04
	c9.54,0,13.27,5.33,13.27,19.04C111.84,127.49,109.66,134.69,98.57,134.69"/>
<path fill="#D91B5C" d="M47.5,109.08c9.7-4.81,14.42-11.95,14.42-21.83c0-11.83-5.03-25.96-28.93-25.96c0,0-0.68-0.01-1.96-0.01
	c-3.7,0-13.68,0.15-26.14,1.55c-1.18,0.13-2.07,1.12-2.07,2.31v78.53c0,1.28,1.04,2.32,2.33,2.32h9.72c1.29,0,2.32-1.04,2.32-2.32
	v-31.01c3.25,0.23,9.25,0.59,16.17,0.64l13.91,31.31c0.37,0.83,1.21,1.38,2.12,1.38h10.87c0.8,0,1.52-0.39,1.96-1.05
	c0.43-0.67,0.49-1.5,0.17-2.21L47.5,109.08z M32.27,100.13c-7.08,0.08-12.34-0.2-15.07-0.39V75.53c1.66-0.34,4.91-0.76,10.63-0.76
	h5.12c10.41,0,14.11,6.57,14.11,12.73C47.06,95.19,41.4,100.03,32.27,100.13"/>
<path fill="#D91B5C" d="M435.71,133.84c-1.89,0.09-5.39,0.25-7.63,0.25c-6.08,0-6.38-3.01-6.38-11.67V97.36h14.24
	c1.3,0,2.33-1.04,2.33-2.33v-7.99c0-1.29-1.03-2.33-2.33-2.33h-14.24V72.93c0-0.72-0.34-1.39-0.9-1.83
	c-0.57-0.44-1.3-0.59-1.99-0.43l-9.35,2.27c-1.04,0.25-1.76,1.19-1.76,2.27v9.5h-5.42c-1.29,0-2.33,1.04-2.33,2.33v7.99
	c0,1.29,1.04,2.33,2.33,2.33h5.42v27.03c0,17.68,4.3,23.09,18.42,23.09c2.8,0,7.28-0.73,10.54-1.33c1.13-0.22,1.94-1.25,1.89-2.41
	l-0.4-7.69C438.07,134.76,436.96,133.81,435.71,133.84"/>
<path fill="#D91B5C" d="M371,96.01c6.67,0,12.85,1.51,17.93,1.97c0.63,0.07,1.27-0.14,1.75-0.56c0.47-0.41,0.76-1.03,0.79-1.66
	l0.31-7.77c0.05-1.18-0.8-2.21-1.96-2.38c-4.54-0.73-11.76-2.37-18.82-2.37c-19.11,0-27.64,9.81-27.64,31.81
	c0,0.16,0.01,0.31,0.01,0.47h-0.01c0,22,8.53,31.81,27.64,31.81c7.06,0,14.28-1.64,18.82-2.37c1.16-0.18,2-1.21,1.96-2.39
	l-0.31-7.77c-0.02-0.63-0.32-1.24-0.79-1.66c-0.48-0.42-1.12-0.62-1.75-0.55c-5.08,0.45-11.26,1.96-17.93,1.96
	c-8.57,0-12.34-3.75-13.19-13.9c-0.02-0.2-0.03-0.4-0.05-0.62c-0.03-0.38-0.05-0.79-0.07-1.2c-0.02-0.43-0.04-0.86-0.05-1.31
	c-0.02-0.29-0.02-0.61-0.02-0.91c0-0.52-0.02-1.03-0.02-1.57C357.6,100.99,361.11,96.01,371,96.01"/>
<path fill="#D91B5C" d="M312.15,83.24c-7.05,0-18.35,1.64-22.88,2.37c-1.16,0.17-2,1.21-1.96,2.39l0.3,7.77
	c0.03,0.63,0.32,1.24,0.79,1.65c0.48,0.42,1.12,0.63,1.75,0.56c5.08-0.46,14.59-1.24,21.26-1.24c4.84,0,7.62,2.69,7.62,7.37v3.69
	l-15.22,1.22c-14.57,1.09-20.52,6.49-20.52,18.68c0,12.49,6.49,19.63,17.81,19.63c9.4,0,19.92-4.24,20.02-4.28
	c2.25,1.73,4.51,3.22,9.27,3.88c0.65,0.1,1.33-0.1,1.85-0.55c0.5-0.44,0.8-1.08,0.8-1.76v-40.64
	C333.04,89.84,326.41,83.24,312.15,83.24 M319.04,132.85c-0.09,0.03-8.89,2.47-15.35,2.47c-5.45,0-6.26-5.03-6.26-8
	c0-4.84,2.61-7.35,8.11-7.87l13.51-0.71V132.85z"/>
<path fill="#D91B5C" d="M206.51,83.24c-7.06,0-18.35,1.64-22.88,2.37c-1.16,0.17-2,1.21-1.96,2.39l0.31,7.77
	c0.02,0.63,0.32,1.24,0.79,1.65c0.48,0.42,1.12,0.63,1.75,0.56c5.07-0.46,14.59-1.24,21.26-1.24c4.84,0,7.61,2.69,7.61,7.37v3.69
	l-15.22,1.22c-14.57,1.09-20.51,6.49-20.51,18.68c0,12.49,6.49,19.63,17.81,19.63c9.4,0,19.92-4.24,20.02-4.28
	c2.25,1.73,4.51,3.22,9.27,3.88c0.65,0.1,1.34-0.1,1.85-0.55c0.5-0.44,0.8-1.08,0.8-1.76v-40.64
	C227.39,89.84,220.76,83.24,206.51,83.24 M213.39,132.85c-0.09,0.03-8.88,2.47-15.35,2.47c-5.45,0-6.26-5.03-6.26-8
	c0-4.84,2.61-7.35,8.11-7.87l13.51-0.71V132.85z"/>
<path fill="#D91B5C" d="M272.84,84.25c-6.19,0.37-12.28,3.91-16.07,6.6v-3.81c0-1.29-1.04-2.33-2.33-2.33h-9.35
	c-1.29,0-2.33,1.04-2.33,2.33v56.63c0,1.29,1.04,2.33,2.33,2.33h9.35c1.29,0,2.33-1.04,2.33-2.33v-39.15
	c2.11-1.75,8.64-6.65,16.42-7.34c1.2-0.1,2.12-1.11,2.12-2.32v-8.3c0-0.64-0.26-1.25-0.74-1.69
	C274.12,84.43,273.47,84.19,272.84,84.25"/>
<g>
	<path fill="#D91B5C" d="M224.89,190.54h4.83v21.63h24.71v-21.63h4.83v48.87h-4.83v-23.03h-24.71v23.03h-4.83V190.54z"/>
	<path fill="#D91B5C" d="M284.88,202.87c11.55,0,16.66,8.96,16.66,18.69c0,9.73-5.11,18.69-16.66,18.69
		c-11.55,0-16.66-8.96-16.66-18.69C268.22,211.83,273.33,202.87,284.88,202.87z M284.88,236.47c7.7,0,11.83-6.65,11.83-14.91
		s-4.13-14.91-11.83-14.91c-7.7,0-11.83,6.65-11.83,14.91S277.18,236.47,284.88,236.47z"/>
	<path fill="#D91B5C" d="M307.14,234.23c2.66,1.33,5.88,2.24,9.31,2.24c4.2,0,7.91-2.31,7.91-6.37c0-8.47-17.15-7.14-17.15-17.5
		c0-7.07,5.74-9.73,11.62-9.73c1.89,0,5.67,0.42,8.82,1.61l-0.42,3.85c-2.31-1.05-5.46-1.68-7.91-1.68c-4.55,0-7.7,1.4-7.7,5.95
		c0,6.65,17.57,5.81,17.57,17.5c0,7.56-7.07,10.15-12.46,10.15c-3.43,0-6.86-0.42-10.01-1.68L307.14,234.23z"/>
	<path fill="#D91B5C" d="M352.5,207.49h-8.12v23.1c0,3.22,1.19,5.88,4.76,5.88c1.68,0,2.8-0.35,4.06-0.84l0.28,3.64
		c-1.05,0.42-3.22,0.98-5.39,0.98c-7.84,0-8.12-5.39-8.12-11.9v-20.86h-7v-3.78h7v-8.61l4.41-1.54v10.15h8.12V207.49z"/>
	<path fill="#D91B5C" d="M364.82,194.18h-4.41v-5.88h4.41V194.18z M360.41,203.71h4.41v35.7h-4.41V203.71z"/>
	<path fill="#D91B5C" d="M375.95,212.11c0-2.73,0-5.53-0.28-8.4h4.27v6.37h0.14c1.47-3.22,4.13-7.21,11.55-7.21
		c8.82,0,12.18,5.88,12.18,13.72v22.82h-4.41v-21.7c0-6.72-2.38-11.06-8.47-11.06c-8.05,0-10.57,7.07-10.57,13.02v19.74h-4.41
		V212.11z"/>
	<path fill="#D91B5C" d="M443.15,236.47c0,9.94-4.48,18.06-16.73,18.06c-4.69,0-8.96-1.33-10.78-1.89l0.35-4.41
		c2.73,1.4,6.65,2.52,10.5,2.52c11.34,0,12.32-8.26,12.32-18.34h-0.14c-2.38,5.18-6.3,7-10.85,7c-11.41,0-15.05-9.94-15.05-17.85
		c0-10.85,4.2-18.69,14.7-18.69c4.76,0,7.84,0.63,11.13,4.9h0.14v-4.06h4.41V236.47z M427.89,235.63c7.98,0,10.85-7.56,10.85-14.07
		c0-8.61-2.52-14.91-10.57-14.91c-8.4,0-10.57,7.98-10.57,14.91C417.6,228.56,420.4,235.63,427.89,235.63z"/>
</g>
</svg>
