<svg version="1.2" xmlns="http://www.w3.org/2000/svg" viewBox="0 0 699.8 215.96" overflow="visible"><path fill="#01B4E7" d="M638.77 104.63l-.02-.3-.23-.14c-4.58-2.78-10.58-4.34-16.46-4.46-.12-.78-.85-6.28-.95-7.07 5.61-1.59 11-4.64 14.77-8.54l.2-.18-.06-.3c-.28-2.09-1.07-5.01-1.79-6.78l-.12-.26-.29-.07c-5.16-1.47-11.34-1.43-17.03 0-.27-.73-2.37-5.79-2.67-6.51 5-3.05 9.39-7.37 12.02-12.06l.14-.22-.11-.29c-.76-1.8-2.28-4.42-3.49-6.06l-.17-.23h-.31c-5.31-.11-11.25 1.51-16.48 4.33-.46-.64-3.87-5.07-4.33-5.69 4.08-4.21 7.19-9.53 8.52-14.75l.08-.29-.2-.22c-1.21-1.6-3.33-3.75-4.92-5l-.22-.16-.3.04c-5.23 1.33-10.53 4.45-14.74 8.51-.65-.49-5.07-3.95-5.71-4.48 2.81-4.97 4.46-10.72 4.46-16.02 0-.14-.03-.71-.03-.71l-.22-.17c-1.63-1.28-4.21-2.76-6.09-3.52l-.26-.1-.23.13c-4.69 2.6-8.99 6.96-12.01 11.97-.76-.29-6.13-2.56-6.84-2.86.71-2.82 1.15-5.72 1.15-8.61 0-2.92-.35-5.79-1.15-8.39l-.07-.27-.29-.11c-1.77-.76-4.61-1.54-6.71-1.85l-.31-.05-.19.2c-3.88 3.76-6.92 9.12-8.54 14.74-.8-.13-6.36-.82-7.21-.91-.07-5.82-1.64-11.79-4.41-16.43l-.14-.26-.29-.01c-2.01-.25-5.05-.25-7.01 0l-.32.01-.14.26c-2.75 4.59-4.3 10.56-4.4 16.41-.81.11-6.46.8-7.27.93-1.62-5.65-4.67-11.03-8.53-14.77l-.22-.22-.32.05c-2.07.31-4.95 1.08-6.73 1.81l-.27.11-.1.27c-.73 2.64-1.12 5.55-1.12 8.49 0 2.84.45 5.76 1.12 8.55-.71.31-6.14 2.64-6.86 2.93-3.04-5-7.35-9.39-12.03-12.03l-.26-.15-.29.1c-1.79.79-4.4 2.29-6.05 3.53l-.26.16v.77c0 5.25 1.63 11.02 4.42 16.02-.61.5-4.69 3.7-5.3 4.19-4.21-4.07-9.52-7.19-14.77-8.55l-.26-.05-.2.19c-1.61 1.21-3.77 3.32-5.01 4.93l-.18.23.07.28c1.31 5.21 4.44 10.54 8.49 14.78-.44.62-4 5.25-4.49 5.89-5.09-2.84-11.01-4.52-16.44-4.45l-.27.01-.18.25c-1.19 1.58-2.69 4.13-3.51 6.07l-.12.25.14.27c2.6 4.66 7 9.02 12.03 12.07-.28.72-2.33 5.74-2.65 6.47-5.77-1.43-11.93-1.45-17.06.05l-.28.07-.1.25c-.76 1.8-1.54 4.64-1.84 6.77l-.04.29.2.23c3.75 3.85 9.13 6.9 14.76 8.46-.12.8-.85 6.35-.94 7.11-5.85.11-11.87 1.66-16.46 4.41l-.25.14-.02.3c-.12 1.01-.19 2.26-.19 3.52 0 1.25.07 2.5.19 3.5l.02.29.25.13c4.6 2.75 10.56 4.33 16.44 4.41.11.8.9 6.51.99 7.29-5.64 1.66-10.98 4.74-14.73 8.59l-.2.24.03.26c.32 2.11 1.1 5.01 1.83 6.76l.11.26.27.09c5.21 1.48 11.36 1.42 17.07 0 .29.72 2.5 5.77 2.81 6.5-5 2.99-9.38 7.32-12.03 12.01l-.13.26.1.26c.77 1.84 2.3 4.45 3.52 6.06l.19.23.26.01c5.38.07 11.31-1.52 16.46-4.36.48.61 3.96 5.14 4.42 5.76-4.05 4.14-7.19 9.45-8.53 14.73l-.07.27.17.23c1.24 1.58 3.37 3.7 4.94 4.98l.23.2.28-.1c5.21-1.3 10.5-4.4 14.76-8.48.65.5 5.15 3.97 5.82 4.46-2.77 5.09-4.39 10.9-4.39 16.18v.59l.26.2c1.57 1.19 4.13 2.65 6.04 3.51l.26.1.28-.13c4.7-2.62 9.04-7.02 12.08-12.08.7.29 5.65 2.29 6.38 2.59-.71 2.79-1.12 5.66-1.12 8.5 0 2.97.39 5.88 1.15 8.49l.07.28.29.11c1.78.76 4.64 1.54 6.74 1.88l.32.04.2-.23c3.89-3.78 6.93-9.16 8.45-14.73.82.13 6.51.94 7.31 1.03.11 5.87 1.69 11.85 4.45 16.41l.13.25.31.04c2.02.26 5.03.26 7.01 0l.29-.04.14-.25c2.73-4.56 4.3-10.55 4.45-16.45.79-.11 6.12-.86 6.92-.99 1.57 5.66 4.63 11 8.52 14.77l.22.19.26-.02c2.12-.34 5-1.09 6.79-1.81l.26-.13.09-.26c.76-2.63 1.1-5.53 1.1-8.49 0-2.87-.41-5.79-1.1-8.61.73-.28 5.9-2.51 6.62-2.84 3.04 5.02 7.37 9.42 12.04 12.05l.23.12.28-.1c1.85-.77 4.48-2.28 6.09-3.54l.23-.14s.02-.62.02-.79c0-5.17-1.64-10.95-4.36-16.01.61-.49 4.88-3.8 5.49-4.3 4.27 4.05 9.58 7.17 14.79 8.51l.28.08.22-.2c1.59-1.25 3.76-3.39 4.99-4.94l.19-.25-.1-.26c-1.3-5.2-4.4-10.52-8.47-14.78.47-.62 3.92-5.15 4.39-5.79 5.16 2.84 11.09 4.48 16.43 4.36h.29l.18-.21c1.27-1.63 2.75-4.18 3.52-6.11l.11-.25-.14-.26c-2.55-4.59-6.91-8.95-11.91-12.1.29-.71 2.33-5.7 2.63-6.42 5.67 1.46 11.82 1.51 17 0l.25-.08.12-.26c.76-1.83 1.53-4.66 1.85-6.75l.03-.29-.22-.22c-3.76-3.89-9.1-6.9-14.68-8.5.12-.78.88-6.13.95-6.92 5.92-.1 11.92-1.68 16.5-4.44l.23-.15.02-.31c.14-.97.19-2.25.19-3.5.04-1.22-.02-2.46-.15-3.44m-107.72 83.63c-44.6 0-80.9-36.3-80.9-80.92 0-44.61 36.3-80.91 80.9-80.91 44.62 0 80.9 36.29 80.9 80.91s-36.29 80.92-80.9 80.92"/><path fill="#01B4E7" d="M531.05 36.16c-39.23 0-71.16 31.94-71.16 71.18 0 39.26 31.93 71.19 71.16 71.19 39.24 0 71.18-31.93 71.18-71.19 0-39.24-31.94-71.18-71.18-71.18M540 47.61c.68-.56 1.6-.38 2.49-.2 14.3 3.46 24.81 9.5 35.05 20.28.73.77 1.12 1.48 1.12 2.12 0 .06-.02.16-.02.25-.22.98-1.31 1.51-2.29 1.97L546.4 86.54c-1.18.56-2.28.61-3.14.07-.88-.5-1.43-1.49-1.53-2.78l-2.42-33.17c-.09-1.59.12-2.56.69-3.05m-55.59 20.33h.02c10.25-10.76 20.73-16.83 35.03-20.26.88-.2 1.83-.37 2.45.2.61.47.82 1.45.71 3.04l-2.42 33.17c-.08 1.27-.61 2.28-1.51 2.77-.87.52-2.01.5-3.14-.07L485.63 72.3c-.98-.49-2.12-1-2.32-1.99-.09-.67.24-1.47 1.1-2.37m-7.11 61.48c-1.3.89-2.26 1.21-2.99.94-.82-.28-1.09-1.18-1.34-2.06-4.23-14.13-4.23-26.25-.05-40.49.36-1.22.87-1.9 1.52-2.13.96-.34 1.96.36 2.86.98l27.51 18.72c1.04.68 1.64 1.65 1.64 2.69 0 1-.6 1.96-1.6 2.69l-27.55 18.66zm45.16 38.95c-.66.53-1.57.37-2.48.14-14.29-3.41-24.81-9.46-35.03-20.25-.74-.77-1.1-1.45-1.1-2.06 0-.11 0-.17.02-.3.14-.94 1.3-1.49 2.26-1.96l29.95-14.53c1.17-.55 2.3-.58 3.18-.05.86.51 1.4 1.48 1.51 2.75l2.42 33.24c.08 1.57-.15 2.54-.73 3.02m8.53-41.44c-10.73 0-19.44-8.72-19.44-19.44 0-6.54 3.26-12.62 8.75-16.24 1.8-1.21 4.24-.69 5.43 1.11 1.19 1.81.71 4.25-1.1 5.44a11.533 11.533 0 00-5.22 9.69c0 6.38 5.21 11.59 11.59 11.59 6.4 0 11.6-5.21 11.6-11.59 0-3.92-1.94-7.55-5.22-9.69a3.92 3.92 0 01-1.1-5.44c1.19-1.79 3.63-2.31 5.43-1.12 5.46 3.62 8.75 9.69 8.75 16.25-.01 10.73-8.74 19.44-19.47 19.44m46.59 20.94c-10.2 10.74-20.65 16.79-35.03 20.23-1.22.31-2.06.21-2.59-.22-.75-.63-.65-1.89-.58-2.98l2.39-33.19c.15-1.29.66-2.27 1.57-2.81.88-.47 2.01-.44 3.12.1l29.95 14.5c1.4.69 2.15 1.37 2.29 2.12.16.84-.45 1.57-1.12 2.25m10.1-62.34c.81.27 1.13 1.16 1.37 2.05 4.2 14.14 4.2 26.24 0 40.49-.34 1.22-.83 1.9-1.48 2.17-.94.29-1.97-.38-2.83-1.03l-27.54-18.69c-1.06-.71-1.68-1.67-1.68-2.7 0-1.01.6-1.97 1.68-2.71l27.54-18.66c1.24-.9 2.21-1.18 2.94-.92M128.07 130.97c-1.88.08-5.39.24-7.62.24-6.08 0-6.39-2.99-6.39-11.67V94.49h14.25c1.29 0 2.32-1.04 2.32-2.33v-7.99c0-1.29-1.03-2.32-2.32-2.32h-14.25V70.07c0-.73-.34-1.39-.9-1.84-.56-.44-1.29-.59-1.98-.43l-9.35 2.27a2.334 2.334 0 00-1.78 2.27v9.5h-5.41c-1.29 0-2.33 1.03-2.33 2.32v7.99c0 1.29 1.04 2.33 2.33 2.33h5.41v27.02c0 17.67 4.3 23.09 18.42 23.09 2.8 0 7.28-.74 10.53-1.34a2.334 2.334 0 001.89-2.4l-.4-7.7c-.05-1.26-1.16-2.21-2.42-2.18M63.53 81.45c-.17-.03-.71-.05-1.81-.06-.16 0-.31-.01-.48-.01v.01c-.35-.01-.74-.01-1.17-.01-6.2 0-12.27 3.9-16.07 6.6v-3.81c0-1.29-1.04-2.32-2.33-2.32h-9.35c-1.29 0-2.33 1.03-2.33 2.32v56.62c0 1.29 1.04 2.32 2.33 2.32h9.35c1.29 0 2.33-1.03 2.33-2.32v-39.14c2.11-1.76 8.64-6.66 16.42-7.34.03-.01.05-.01.08-.02v.02c4.79 0 7.56 2.22 7.61 6.81v39.67c0 1.29 1.04 2.32 2.33 2.32h9.35c1.29 0 2.33-1.03 2.33-2.32v-38.68c.01-13.35-5.93-19.97-18.59-20.66M12.03 59.98H2.32c-.08 0-.15.02-.23.02l-.01-.02c-.05.01-.08.03-.13.04-.21.04-.42.1-.61.19-.07.03-.13.07-.19.1-.19.11-.37.24-.52.4-.04.04-.07.08-.11.13-.14.17-.27.37-.36.59-.01.03-.01.07-.02.1-.1.23-.14.49-.14.75 0 .01-.01.01-.01.02V140.81c0 1.3 1.04 2.32 2.34 2.32h9.71c.08 0 .15-.01.23-.02l.01.02c.04 0 .07-.02.12-.03.21-.04.42-.1.61-.19.07-.02.13-.06.19-.09.19-.12.36-.25.51-.4.04-.05.07-.09.11-.13.14-.17.27-.37.36-.59.01-.02.01-.06.02-.1.1-.23.14-.49.14-.76l.01-.01V62.31a2.299 2.299 0 00-2.32-2.33M329.02 93.15c6.66 0 12.85 1.51 17.92 1.97.64.07 1.28-.14 1.76-.56.47-.41.76-1.01.79-1.65l.31-7.77c.04-1.18-.8-2.21-1.96-2.38-4.53-.73-11.76-2.38-18.81-2.38-19.11 0-27.63 9.81-27.63 31.81 0 .16 0 .31.01.47h-.01c0 21.99 8.52 31.8 27.63 31.8 7.05 0 14.28-1.64 18.81-2.36 1.16-.18 2-1.21 1.96-2.39l-.31-7.77a2.34 2.34 0 00-.79-1.65c-.48-.43-1.12-.62-1.76-.55-5.08.44-11.26 1.96-17.92 1.96-8.56 0-12.34-3.75-13.19-13.89-.01-.2-.04-.4-.05-.61-.02-.38-.05-.79-.07-1.21-.02-.42-.04-.85-.05-1.31-.02-.29-.02-.61-.02-.91-.01-.52-.02-1.03-.02-1.57.01-14.07 3.52-19.05 13.4-19.05M393.71 130.97c-1.89.08-5.39.24-7.62.24-6.08 0-6.39-2.99-6.39-11.67V94.49h14.25c1.29 0 2.32-1.04 2.32-2.33v-7.99c0-1.29-1.03-2.32-2.32-2.32H379.7V70.07c0-.73-.34-1.39-.9-1.84-.56-.44-1.29-.59-1.98-.43l-9.35 2.27a2.325 2.325 0 00-1.77 2.27v9.5h-5.41c-1.29 0-2.33 1.03-2.33 2.32v7.99c0 1.29 1.04 2.33 2.33 2.33h5.41v27.02c0 17.67 4.3 23.09 18.42 23.09 2.8 0 7.29-.74 10.53-1.34a2.343 2.343 0 001.89-2.4l-.4-7.7c-.05-1.26-1.18-2.21-2.43-2.18M270.19 80.38c-7.05 0-18.35 1.65-22.89 2.38-1.16.17-2 1.2-1.96 2.38l.31 7.77c.02.64.32 1.24.79 1.65.48.43 1.12.63 1.76.56 5.07-.46 14.58-1.24 21.25-1.24 4.84 0 7.62 2.69 7.62 7.37v3.69l-15.22 1.22c-14.58 1.09-20.52 6.48-20.52 18.67 0 12.49 6.49 19.62 17.81 19.62 9.39 0 19.92-4.24 20.01-4.28 2.25 1.72 4.51 3.21 9.26 3.88.66.09 1.34-.11 1.85-.55.5-.43.8-1.08.8-1.76v-40.63c0-14.13-6.62-20.73-20.87-20.73m6.87 49.6c-.1.04-8.88 2.47-15.35 2.47-5.45 0-6.27-5.03-6.27-7.99 0-4.84 2.61-7.35 8.1-7.87l13.51-.71v14.1h.01zM190.32 100.01c0-12.48-5.82-19.63-23.47-19.63-.8 0-1.54.04-2.26.07-17.49.77-25.36 10.64-25.36 31.73 0 .17.01.32.01.47h-.01c0 7.23.64 13.31 2.28 18.13 2.65 9.29 10.68 13.67 19.95 13.67.94 0 1.97-.02 3.04-.08.77-.02 1.55-.06 2.36-.12v-.02c6.49-.48 14-1.58 17.49-2.14 1.16-.17 2-1.21 1.96-2.39l-.31-7.77c-.02-.62-.32-1.25-.79-1.66-.48-.42-1.12-.62-1.76-.55-4.37.39-12.01 1.03-18.3 1.18-5.98 0-9.29-2.41-10.74-8.36l-.46-2.65 15.85-1.22c14.58-1.08 20.52-6.47 20.52-18.66m-36.78 8.96c.02-.46.05-.91.07-1.35l.05-.57c.63-7.59 2.86-11.87 7.41-13.59 1.73-.51 3.7-.92 5.78-.92 9.16 0 9.35 4.87 9.35 7.84 0 4.84-2.61 7.35-8.1 7.87l-14.56.72zM233.05 81.39c-6.18.37-12.27 3.9-16.07 6.59v-3.8c0-1.29-1.04-2.32-2.33-2.32h-9.35c-1.29 0-2.33 1.03-2.33 2.32v56.62c0 1.29 1.04 2.32 2.33 2.32h9.35c1.29 0 2.33-1.03 2.33-2.32v-39.14c2.11-1.76 8.64-6.66 16.42-7.34 1.19-.1 2.12-1.11 2.12-2.32v-8.3c0-.65-.26-1.25-.74-1.69-.46-.44-1.1-.68-1.73-.62M675.43 0h2.83v215.96h-2.83z"/></svg>