<?xml version="1.0" encoding="utf-8"?>
<svg version="1.2" xmlns="http://www.w3.org/2000/svg" x="0px" y="0px" viewBox="0 0 753.57 215.8" overflow="visible" xml:space="preserve">
<path fill="#D91B5C" d="M677.58,104.44l-0.02-0.3l-0.23-0.13c-4.58-2.78-10.58-4.34-16.46-4.47c-0.11-0.78-0.85-6.28-0.94-7.07
	c5.61-1.59,10.99-4.64,14.77-8.54l0.2-0.18l-0.06-0.3c-0.28-2.09-1.07-5.01-1.79-6.77l-0.12-0.26l-0.28-0.07
	c-5.17-1.48-11.35-1.44-17.03,0c-0.27-0.73-2.37-5.8-2.67-6.52c5-3.05,9.39-7.37,12.02-12.05l0.14-0.23l-0.1-0.29
	c-0.76-1.8-2.29-4.41-3.5-6.07l-0.17-0.23h-0.31c-5.32-0.11-11.25,1.52-16.48,4.33c-0.46-0.64-3.87-5.08-4.33-5.69
	c4.08-4.2,7.19-9.53,8.53-14.75l0.08-0.29l-0.2-0.22c-1.21-1.6-3.33-3.75-4.92-5l-0.22-0.17l-0.3,0.05
	c-5.23,1.32-10.53,4.45-14.74,8.5c-0.65-0.49-5.07-3.95-5.71-4.48c2.81-4.97,4.46-10.72,4.46-16.02c0-0.15-0.02-0.72-0.02-0.72
	l-0.23-0.17c-1.63-1.28-4.21-2.76-6.09-3.53l-0.26-0.09l-0.23,0.13c-4.69,2.61-8.99,6.97-12.01,11.97
	c-0.76-0.29-6.13-2.56-6.85-2.86c0.71-2.81,1.15-5.72,1.15-8.62c0-2.92-0.35-5.79-1.15-8.39l-0.06-0.27l-0.29-0.11
	c-1.77-0.76-4.61-1.54-6.71-1.84l-0.31-0.05l-0.19,0.2c-3.88,3.76-6.92,9.12-8.54,14.74c-0.8-0.13-6.36-0.82-7.21-0.91
	c-0.08-5.83-1.64-11.8-4.42-16.43L573.63,0l-0.29-0.01c-2-0.26-5.05-0.26-7.01,0L566.01,0l-0.14,0.26
	c-2.75,4.59-4.3,10.55-4.4,16.42c-0.8,0.1-6.46,0.79-7.27,0.92c-1.62-5.65-4.67-11.03-8.53-14.77l-0.22-0.22l-0.32,0.04
	c-2.08,0.31-4.96,1.09-6.73,1.81l-0.27,0.12l-0.1,0.27c-0.73,2.64-1.12,5.55-1.12,8.5c0,2.84,0.46,5.77,1.12,8.56
	c-0.71,0.3-6.14,2.63-6.86,2.93c-3.04-5-7.35-9.39-12.03-12.04l-0.26-0.14l-0.29,0.1c-1.79,0.79-4.4,2.29-6.05,3.53l-0.25,0.16v0.78
	c0,5.24,1.62,11.02,4.42,16.02c-0.61,0.5-4.69,3.7-5.3,4.19c-4.21-4.06-9.52-7.19-14.77-8.55l-0.27-0.05l-0.2,0.19
	c-1.61,1.21-3.77,3.32-5.01,4.93l-0.18,0.23l0.07,0.28c1.31,5.21,4.44,10.54,8.5,14.78c-0.44,0.62-4,5.26-4.49,5.9
	c-5.09-2.85-11.01-4.52-16.44-4.45l-0.27,0.01l-0.18,0.25c-1.19,1.58-2.69,4.13-3.51,6.07l-0.11,0.26l0.14,0.26
	c2.6,4.67,7.01,9.02,12.03,12.07c-0.27,0.72-2.33,5.74-2.65,6.47c-5.78-1.43-11.93-1.45-17.07,0.05l-0.28,0.07l-0.11,0.25
	c-0.76,1.8-1.54,4.64-1.84,6.78l-0.04,0.29l0.2,0.23c3.75,3.86,9.13,6.91,14.76,8.47c-0.12,0.8-0.85,6.35-0.94,7.12
	c-5.85,0.11-11.87,1.66-16.46,4.41l-0.26,0.14l-0.02,0.3c-0.12,1.01-0.19,2.26-0.19,3.52c0,1.26,0.07,2.5,0.19,3.5l0.02,0.29
	l0.26,0.13c4.59,2.75,10.56,4.33,16.44,4.41c0.11,0.8,0.9,6.51,1,7.3c-5.65,1.66-10.98,4.74-14.74,8.59l-0.2,0.24l0.02,0.26
	c0.32,2.11,1.1,5.02,1.83,6.77l0.11,0.26l0.26,0.09c5.21,1.48,11.36,1.42,17.08,0c0.29,0.72,2.51,5.77,2.81,6.5
	c-5,2.99-9.38,7.33-12.03,12.01l-0.13,0.26l0.1,0.27c0.77,1.84,2.3,4.44,3.52,6.06l0.19,0.23l0.26,0.01
	c5.38,0.07,11.31-1.52,16.46-4.36c0.48,0.61,3.96,5.14,4.42,5.76c-4.05,4.14-7.19,9.45-8.53,14.74l-0.07,0.27l0.17,0.23
	c1.24,1.58,3.37,3.7,4.94,4.98l0.23,0.2l0.28-0.1c5.21-1.3,10.51-4.4,14.77-8.48c0.64,0.5,5.15,3.97,5.81,4.46
	c-2.77,5.09-4.39,10.9-4.39,16.18v0.59l0.26,0.2c1.57,1.19,4.13,2.65,6.04,3.51l0.26,0.1l0.27-0.13c4.7-2.62,9.04-7.02,12.08-12.08
	c0.7,0.29,5.65,2.29,6.38,2.59c-0.71,2.79-1.12,5.66-1.12,8.5c0,2.98,0.39,5.88,1.15,8.5l0.07,0.28l0.29,0.11
	c1.78,0.76,4.64,1.54,6.74,1.88l0.31,0.04l0.2-0.23c3.89-3.78,6.92-9.16,8.45-14.73c0.82,0.14,6.51,0.94,7.3,1.03
	c0.11,5.87,1.69,11.86,4.45,16.42l0.13,0.25l0.31,0.04c2.02,0.26,5.03,0.26,7.01,0l0.29-0.04l0.14-0.25
	c2.74-4.56,4.3-10.55,4.45-16.45c0.8-0.11,6.13-0.85,6.92-0.99c1.57,5.66,4.63,11,8.52,14.77l0.22,0.19l0.26-0.02
	c2.12-0.34,5-1.09,6.8-1.81l0.25-0.13l0.09-0.26c0.76-2.63,1.1-5.53,1.1-8.49c0-2.87-0.4-5.8-1.1-8.62c0.73-0.28,5.9-2.51,6.62-2.84
	c3.05,5.02,7.37,9.42,12.04,12.05l0.23,0.12l0.28-0.1c1.85-0.77,4.48-2.28,6.09-3.54l0.23-0.14c0,0,0.02-0.62,0.02-0.79
	c0-5.18-1.64-10.96-4.36-16.01c0.61-0.49,4.88-3.8,5.49-4.3c4.27,4.05,9.58,7.17,14.8,8.51l0.28,0.08l0.22-0.2
	c1.59-1.25,3.76-3.39,5-4.94l0.19-0.25l-0.1-0.26c-1.29-5.2-4.4-10.52-8.46-14.78c0.47-0.62,3.92-5.15,4.38-5.8
	c5.16,2.84,11.1,4.48,16.43,4.36h0.3l0.17-0.22c1.27-1.63,2.75-4.18,3.52-6.11l0.12-0.25l-0.14-0.26
	c-2.55-4.58-6.91-8.95-11.92-12.1c0.29-0.71,2.33-5.7,2.64-6.42c5.66,1.46,11.83,1.51,17,0l0.25-0.08l0.12-0.26
	c0.76-1.82,1.53-4.66,1.85-6.76l0.03-0.29l-0.22-0.22c-3.75-3.89-9.1-6.91-14.68-8.5c0.12-0.78,0.88-6.13,0.95-6.92
	c5.92-0.1,11.92-1.67,16.5-4.44l0.23-0.14l0.02-0.31c0.14-0.97,0.19-2.25,0.19-3.5C677.77,106.66,677.72,105.43,677.58,104.44
	 M569.84,188.09c-44.6,0-80.91-36.31-80.91-80.93s36.31-80.92,80.91-80.92c44.63,0,80.92,36.3,80.92,80.92
	C650.75,151.78,614.46,188.09,569.84,188.09"/>
<path fill="#D91B5C" d="M569.84,35.96c-39.23,0-71.17,31.94-71.17,71.19c0,39.26,31.94,71.2,71.17,71.2
	c39.25,0,71.2-31.94,71.2-71.2C641.03,67.91,609.09,35.96,569.84,35.96 M578.8,47.41c0.68-0.56,1.6-0.38,2.49-0.2
	c14.3,3.47,24.81,9.51,35.06,20.28c0.73,0.77,1.12,1.48,1.12,2.12c0,0.06-0.02,0.16-0.02,0.25c-0.22,0.98-1.31,1.51-2.29,1.97
	L585.2,86.35c-1.18,0.56-2.28,0.61-3.14,0.07c-0.88-0.5-1.43-1.49-1.53-2.78l-2.42-33.17C578.01,48.88,578.23,47.9,578.8,47.41
	 M523.19,67.75h0.02c10.25-10.76,20.73-16.83,35.04-20.26c0.88-0.2,1.82-0.37,2.46,0.2c0.61,0.47,0.82,1.45,0.7,3.04L559,83.9
	c-0.08,1.28-0.61,2.28-1.5,2.77c-0.88,0.52-2.02,0.5-3.15-0.07l-29.93-14.5c-0.98-0.49-2.12-1-2.32-1.99
	C522,69.44,522.33,68.65,523.19,67.75 M516.08,129.24c-1.3,0.89-2.26,1.21-2.99,0.94c-0.81-0.28-1.09-1.18-1.34-2.06
	c-4.24-14.13-4.24-26.25-0.05-40.5c0.36-1.22,0.87-1.9,1.52-2.13c0.96-0.34,1.96,0.36,2.86,0.98l27.52,18.72
	c1.04,0.68,1.64,1.65,1.64,2.69c0,1-0.61,1.96-1.6,2.69L516.08,129.24z M561.25,168.19c-0.66,0.54-1.57,0.38-2.48,0.14
	c-14.3-3.41-24.81-9.46-35.04-20.25c-0.74-0.77-1.1-1.45-1.1-2.06c0-0.11,0-0.18,0.02-0.3c0.14-0.94,1.29-1.49,2.26-1.96
	l29.95-14.53c1.17-0.55,2.3-0.58,3.18-0.05c0.86,0.51,1.4,1.48,1.51,2.75l2.42,33.25C562.06,166.75,561.83,167.71,561.25,168.19
	 M569.78,126.75c-10.73,0-19.45-8.72-19.45-19.44c0-6.55,3.26-12.62,8.75-16.24c1.8-1.21,4.24-0.69,5.43,1.11
	c1.19,1.81,0.71,4.25-1.1,5.44c-3.28,2.15-5.22,5.77-5.22,9.69c0,6.38,5.21,11.59,11.59,11.59c6.4,0,11.6-5.21,11.6-11.59
	c0-3.92-1.94-7.55-5.23-9.7c-1.81-1.19-2.3-3.63-1.1-5.44c1.19-1.79,3.64-2.31,5.43-1.12c5.47,3.62,8.75,9.69,8.75,16.25
	C589.24,118.03,580.51,126.75,569.78,126.75 M616.39,147.7c-10.21,10.74-20.65,16.79-35.04,20.24c-1.22,0.31-2.06,0.21-2.59-0.22
	c-0.75-0.63-0.65-1.9-0.58-2.98l2.38-33.2c0.16-1.29,0.67-2.27,1.57-2.81c0.88-0.47,2.02-0.44,3.13,0.1l29.96,14.51
	c1.4,0.69,2.15,1.37,2.29,2.11C617.66,146.27,617.05,147.01,616.39,147.7 M626.48,85.34c0.81,0.27,1.13,1.16,1.37,2.05
	c4.21,14.14,4.21,26.24,0,40.5c-0.34,1.22-0.83,1.9-1.48,2.17c-0.94,0.29-1.97-0.38-2.83-1.03l-27.55-18.69
	c-1.06-0.71-1.68-1.67-1.68-2.7c0-1.01,0.61-1.97,1.68-2.71l27.55-18.67C624.78,85.36,625.75,85.08,626.48,85.34"/>
<path fill="#D91B5C" d="M165.01,130.8c-1.89,0.09-5.39,0.25-7.64,0.25c-6.07,0-6.37-3.01-6.37-11.67V94.32h14.24
	c1.3,0,2.33-1.04,2.33-2.33V84c0-1.29-1.03-2.33-2.33-2.33H151V69.89c0-0.72-0.34-1.39-0.91-1.83c-0.56-0.44-1.28-0.59-1.97-0.43
	l-9.37,2.27c-1.03,0.25-1.76,1.19-1.76,2.27v9.5h-5.41c-1.3,0-2.33,1.04-2.33,2.33v7.99c0,1.29,1.04,2.33,2.33,2.33h5.41v27.03
	c0,17.68,4.3,23.09,18.41,23.09c2.81,0,7.29-0.73,10.55-1.33c1.14-0.22,1.95-1.25,1.89-2.41l-0.4-7.69
	C167.38,131.72,166.27,130.77,165.01,130.8"/>
<path fill="#D91B5C" d="M95.74,80.2c-19.11,0-27.64,9.81-27.64,31.81c0,22.33,8.53,32.29,27.64,32.29c19.03,0,27.5-9.96,27.5-32.29
	C123.24,90.3,114.5,80.2,95.74,80.2 M95.74,131.65c-11.26,0-13.39-6.89-13.39-19.64c0-14.06,3.5-19.04,13.39-19.04
	c9.54,0,13.27,5.33,13.27,19.04C109.01,124.45,106.83,131.65,95.74,131.65"/>
<path fill="#D91B5C" d="M44.67,106.04c9.7-4.81,14.42-11.95,14.42-21.83c0-11.83-5.03-25.96-28.93-25.96c0,0-0.68-0.01-1.96-0.01
	c-3.7,0-13.68,0.15-26.14,1.55C0.89,59.93,0,60.92,0,62.1v78.53c0,1.28,1.04,2.32,2.33,2.32h9.72c1.29,0,2.32-1.04,2.32-2.32v-31.01
	c3.25,0.23,9.25,0.59,16.17,0.64l13.91,31.31c0.37,0.83,1.21,1.38,2.12,1.38h10.87c0.8,0,1.52-0.39,1.96-1.05
	c0.43-0.67,0.49-1.5,0.17-2.21L44.67,106.04z M29.44,97.09c-7.08,0.08-12.34-0.2-15.07-0.39V72.49c1.66-0.34,4.91-0.76,10.63-0.76
	h5.12c10.41,0,14.11,6.57,14.11,12.73C44.23,92.15,38.56,96.99,29.44,97.09"/>
<path fill="#D91B5C" d="M432.88,130.8c-1.89,0.09-5.39,0.25-7.63,0.25c-6.08,0-6.38-3.01-6.38-11.67V94.32h14.24
	c1.3,0,2.33-1.04,2.33-2.33V84c0-1.29-1.03-2.33-2.33-2.33h-14.24V69.89c0-0.72-0.34-1.39-0.9-1.83c-0.57-0.44-1.3-0.59-1.99-0.43
	l-9.35,2.27c-1.04,0.25-1.76,1.19-1.76,2.27v9.5h-5.42c-1.29,0-2.33,1.04-2.33,2.33v7.99c0,1.29,1.04,2.33,2.33,2.33h5.42v27.03
	c0,17.68,4.3,23.09,18.42,23.09c2.8,0,7.28-0.73,10.54-1.33c1.13-0.22,1.94-1.25,1.89-2.41l-0.4-7.69
	C435.24,131.72,434.13,130.77,432.88,130.8"/>
<path fill="#D91B5C" d="M368.17,92.97c6.67,0,12.85,1.51,17.93,1.97c0.63,0.07,1.27-0.14,1.75-0.56c0.47-0.41,0.76-1.03,0.79-1.66
	l0.31-7.77c0.05-1.18-0.8-2.21-1.96-2.38c-4.54-0.73-11.76-2.37-18.82-2.37c-19.11,0-27.64,9.81-27.64,31.81
	c0,0.16,0.01,0.31,0.01,0.47h-0.01c0,22,8.53,31.81,27.64,31.81c7.06,0,14.28-1.64,18.82-2.37c1.16-0.18,2-1.21,1.96-2.39
	l-0.31-7.77c-0.02-0.63-0.32-1.24-0.79-1.66c-0.48-0.42-1.12-0.62-1.75-0.55c-5.08,0.45-11.26,1.96-17.93,1.96
	c-8.57,0-12.34-3.75-13.19-13.9c-0.02-0.2-0.03-0.4-0.05-0.62c-0.03-0.38-0.05-0.79-0.07-1.2c-0.02-0.43-0.04-0.86-0.05-1.31
	c-0.02-0.29-0.02-0.61-0.02-0.91c0-0.52-0.02-1.03-0.02-1.57C354.77,97.95,358.28,92.97,368.17,92.97"/>
<path fill="#D91B5C" d="M309.32,80.2c-7.05,0-18.35,1.64-22.88,2.37c-1.16,0.17-2,1.21-1.96,2.39l0.3,7.77
	c0.03,0.63,0.32,1.24,0.79,1.65c0.48,0.42,1.12,0.63,1.75,0.56c5.08-0.46,14.59-1.24,21.26-1.24c4.84,0,7.62,2.69,7.62,7.37v3.69
	l-15.22,1.22c-14.57,1.09-20.52,6.49-20.52,18.68c0,12.49,6.49,19.63,17.81,19.63c9.4,0,19.92-4.24,20.02-4.28
	c2.25,1.73,4.51,3.22,9.27,3.88c0.65,0.1,1.33-0.1,1.85-0.55c0.5-0.44,0.8-1.08,0.8-1.76v-40.64C330.2,86.8,323.57,80.2,309.32,80.2
	 M316.2,129.81c-0.09,0.03-8.89,2.47-15.35,2.47c-5.45,0-6.26-5.03-6.26-8c0-4.84,2.61-7.35,8.11-7.87l13.51-0.71L316.2,129.81
	L316.2,129.81z"/>
<path fill="#D91B5C" d="M203.68,80.2c-7.06,0-18.35,1.64-22.88,2.37c-1.16,0.17-2,1.21-1.96,2.39l0.31,7.77
	c0.02,0.63,0.32,1.24,0.79,1.65c0.48,0.42,1.12,0.63,1.75,0.56c5.07-0.46,14.59-1.24,21.26-1.24c4.84,0,7.61,2.69,7.61,7.37v3.69
	l-15.22,1.22c-14.57,1.09-20.51,6.49-20.51,18.68c0,12.49,6.49,19.63,17.81,19.63c9.4,0,19.92-4.24,20.02-4.28
	c2.25,1.73,4.51,3.22,9.27,3.88c0.65,0.1,1.34-0.1,1.85-0.55c0.5-0.44,0.8-1.08,0.8-1.76v-40.64
	C224.56,86.8,217.93,80.2,203.68,80.2 M210.56,129.81c-0.09,0.03-8.88,2.47-15.35,2.47c-5.45,0-6.26-5.03-6.26-8
	c0-4.84,2.61-7.35,8.11-7.87l13.51-0.71L210.56,129.81L210.56,129.81z"/>
<path fill="#D91B5C" d="M270.01,81.21c-6.19,0.37-12.28,3.91-16.07,6.6V84c0-1.29-1.04-2.33-2.33-2.33h-9.35
	c-1.29,0-2.33,1.04-2.33,2.33v56.63c0,1.29,1.04,2.33,2.33,2.33h9.35c1.29,0,2.33-1.04,2.33-2.33v-39.15
	c2.11-1.75,8.64-6.65,16.42-7.34c1.2-0.1,2.12-1.11,2.12-2.32v-8.3c0-0.64-0.26-1.25-0.74-1.69
	C271.29,81.39,270.64,81.15,270.01,81.21"/>
<rect x="714.24" y="0" fill="#D91B5C" width="2.83" height="215.96"/>
</svg>
