<svg version="1.2" xmlns="http://www.w3.org/2000/svg" viewBox="0 0 650.49 215.96" overflow="visible"><path fill="#F7A81B" d="M574.47 104.61l-.02-.3-.23-.13c-4.58-2.78-10.58-4.34-16.45-4.47-.12-.78-.85-6.28-.94-7.06 5.61-1.59 10.99-4.64 14.76-8.54l.2-.18-.06-.3c-.28-2.09-1.07-5.01-1.8-6.77l-.12-.26-.28-.07c-5.16-1.47-11.35-1.44-17.02 0-.27-.73-2.37-5.8-2.67-6.51 5-3.05 9.39-7.37 12.02-12.05l.14-.23-.11-.29c-.76-1.8-2.28-4.41-3.49-6.06l-.17-.23h-.31c-5.31-.12-11.25 1.51-16.48 4.33-.46-.64-3.87-5.07-4.33-5.69 4.08-4.2 7.19-9.53 8.53-14.74l.08-.29-.2-.22c-1.21-1.6-3.33-3.75-4.92-5l-.22-.17-.3.04c-5.22 1.32-10.53 4.45-14.74 8.5-.64-.49-5.06-3.95-5.7-4.47 2.82-4.97 4.46-10.72 4.46-16.02 0-.15-.03-.72-.03-.72l-.23-.17c-1.63-1.28-4.21-2.76-6.09-3.52l-.26-.09-.24.13c-4.69 2.61-8.99 6.97-12 11.96-.76-.29-6.13-2.55-6.84-2.86.71-2.82 1.15-5.72 1.15-8.61 0-2.92-.35-5.79-1.15-8.39l-.07-.27-.29-.11c-1.77-.76-4.61-1.54-6.71-1.84l-.31-.05-.19.2c-3.88 3.76-6.92 9.12-8.53 14.74-.8-.13-6.36-.82-7.21-.91-.07-5.83-1.64-11.79-4.41-16.43l-.14-.26-.29-.01c-2-.25-5.05-.25-7.01 0l-.31.01-.14.26c-2.75 4.59-4.3 10.55-4.4 16.41-.81.11-6.46.79-7.28.93-1.61-5.65-4.67-11.03-8.53-14.77l-.22-.22-.31.05c-2.08.31-4.96 1.08-6.73 1.8l-.27.12-.11.27c-.73 2.64-1.12 5.55-1.12 8.49 0 2.84.45 5.76 1.12 8.55-.71.3-6.13 2.64-6.86 2.93-3.04-5-7.35-9.39-12.03-12.03l-.25-.15-.3.1c-1.8.79-4.4 2.29-6.04 3.53l-.26.16v.78c0 5.25 1.63 11.01 4.42 16.02-.61.5-4.69 3.69-5.3 4.19-4.2-4.06-9.52-7.19-14.76-8.55l-.27-.05-.2.19c-1.61 1.21-3.77 3.33-5.01 4.93l-.18.23.07.28c1.31 5.21 4.44 10.54 8.49 14.78-.44.62-4 5.25-4.49 5.89-5.08-2.84-11.01-4.52-16.43-4.44l-.27.01-.18.24c-1.19 1.58-2.69 4.13-3.51 6.07l-.12.25.14.27c2.6 4.66 7 9.02 12.02 12.07-.27.72-2.33 5.74-2.65 6.46-5.77-1.43-11.93-1.45-17.06.05l-.28.07-.1.25c-.76 1.8-1.54 4.64-1.84 6.78l-.04.29.21.23c3.75 3.85 9.13 6.9 14.75 8.46-.12.8-.84 6.35-.94 7.11-5.84.11-11.86 1.66-16.45 4.41l-.25.14-.03.3c-.12 1.01-.19 2.26-.19 3.52 0 1.25.08 2.49.19 3.5l.03.29.25.13c4.59 2.75 10.56 4.32 16.44 4.41.12.8.9 6.51 1 7.29-5.64 1.65-10.98 4.74-14.73 8.59l-.2.24.03.26c.33 2.11 1.1 5.01 1.83 6.76l.12.26.27.09c5.2 1.49 11.36 1.42 17.07 0 .29.72 2.5 5.77 2.81 6.5-5 3-9.38 7.33-12.03 12.01l-.12.26.1.27c.77 1.84 2.3 4.44 3.52 6.06l.18.23.26.01c5.37.08 11.3-1.51 16.45-4.36.48.6 3.96 5.14 4.42 5.76-4.04 4.14-7.18 9.44-8.52 14.73l-.07.27.17.23c1.24 1.58 3.37 3.7 4.95 4.98l.23.2.28-.09c5.21-1.3 10.51-4.4 14.76-8.48.65.5 5.15 3.97 5.82 4.46-2.77 5.09-4.39 10.89-4.39 16.18v.59l.26.2c1.57 1.19 4.13 2.65 6.04 3.51l.26.1.28-.13c4.69-2.62 9.03-7.02 12.07-12.08.71.29 5.65 2.3 6.38 2.58-.71 2.79-1.11 5.66-1.11 8.5 0 2.97.39 5.88 1.14 8.49l.07.28.29.11c1.78.76 4.64 1.54 6.74 1.88l.31.04.2-.23c3.89-3.78 6.92-9.16 8.44-14.72.82.13 6.51.94 7.3 1.02.12 5.88 1.69 11.85 4.45 16.41l.12.25.31.04c2.02.26 5.03.26 7.01 0l.29-.04.14-.25c2.73-4.56 4.3-10.54 4.45-16.44.79-.11 6.12-.86 6.92-.99 1.57 5.66 4.63 10.99 8.52 14.77l.21.19.26-.02c2.12-.34 5-1.08 6.79-1.81l.26-.13.09-.26c.75-2.63 1.1-5.52 1.1-8.48 0-2.87-.4-5.8-1.1-8.61.73-.28 5.9-2.51 6.62-2.84 3.04 5.02 7.37 9.41 12.04 12.05l.23.12.28-.1c1.86-.76 4.48-2.28 6.09-3.54l.23-.14s.02-.62.02-.79c0-5.17-1.64-10.95-4.36-16.01.61-.48 4.88-3.8 5.49-4.29 4.26 4.05 9.58 7.17 14.79 8.51l.28.08.21-.2c1.59-1.25 3.75-3.39 4.99-4.94l.19-.25-.1-.25c-1.3-5.2-4.4-10.52-8.46-14.77.47-.63 3.92-5.15 4.38-5.79 5.16 2.84 11.09 4.47 16.43 4.35h.29l.18-.22c1.28-1.63 2.75-4.18 3.52-6.1l.12-.24-.14-.26c-2.55-4.59-6.91-8.95-11.91-12.1.29-.72 2.33-5.7 2.63-6.42 5.67 1.46 11.82 1.51 17 0l.25-.09.12-.26c.76-1.83 1.53-4.65 1.85-6.75l.03-.29-.22-.22c-3.75-3.89-9.1-6.9-14.67-8.5.12-.78.88-6.13.96-6.91 5.91-.1 11.91-1.68 16.49-4.44l.23-.15.02-.31c.14-.97.19-2.25.19-3.5 0-1.31-.05-2.55-.19-3.53zm-107.7 83.61c-44.58 0-80.88-36.29-80.88-80.9 0-44.6 36.29-80.89 80.88-80.89 44.61 0 80.88 36.29 80.88 80.89.01 44.61-36.27 80.9-80.88 80.9z"/><path fill="#F7A81B" d="M466.77 36.16c-39.22 0-71.14 31.93-71.14 71.16 0 39.25 31.92 71.17 71.14 71.17 39.23 0 71.17-31.92 71.17-71.17 0-39.24-31.94-71.16-71.17-71.16zm8.96 11.44c.69-.56 1.59-.38 2.49-.19 14.3 3.46 24.8 9.5 35.04 20.27.73.77 1.12 1.49 1.12 2.12 0 .06-.02.16-.02.25-.22.98-1.31 1.5-2.29 1.97l-29.94 14.5c-1.18.56-2.28.61-3.15.08-.88-.51-1.43-1.49-1.53-2.78l-2.41-33.17c-.1-1.59.11-2.56.69-3.05zm-55.58 20.32h.02c10.24-10.76 20.72-16.82 35.02-20.25.88-.2 1.83-.37 2.46.19.61.47.82 1.45.71 3.04l-2.42 33.16c-.08 1.28-.61 2.28-1.5 2.77-.87.52-2.01.5-3.15-.07l-29.92-14.49c-.98-.48-2.12-1-2.32-1.99-.1-.66.23-1.46 1.1-2.36zm-7.11 61.47c-1.3.89-2.26 1.21-2.99.94-.82-.28-1.09-1.18-1.35-2.06-4.23-14.12-4.23-26.24-.05-40.48.36-1.22.88-1.89 1.53-2.13.96-.34 1.96.36 2.86.98l27.5 18.71c1.04.69 1.65 1.65 1.65 2.69 0 1-.61 1.96-1.6 2.69l-27.55 18.66zm45.15 38.94c-.66.53-1.58.37-2.49.14-14.29-3.41-24.8-9.46-35.02-20.24-.75-.77-1.1-1.45-1.1-2.06 0-.11 0-.18.02-.3.14-.94 1.3-1.5 2.26-1.96l29.94-14.53c1.17-.55 2.3-.57 3.18-.05.86.51 1.4 1.48 1.5 2.75l2.42 33.23c.09 1.57-.14 2.54-.71 3.02zm8.53-41.42c-10.72 0-19.44-8.72-19.44-19.43 0-6.54 3.26-12.62 8.74-16.23 1.8-1.21 4.24-.69 5.43 1.1 1.19 1.81.71 4.25-1.11 5.44a11.544 11.544 0 00-5.21 9.68c0 6.38 5.2 11.59 11.59 11.59 6.4 0 11.6-5.21 11.6-11.59 0-3.91-1.94-7.55-5.22-9.7a3.92 3.92 0 01-1.1-5.44c1.19-1.79 3.63-2.31 5.43-1.11 5.47 3.62 8.75 9.69 8.75 16.25-.01 10.72-8.74 19.44-19.46 19.44zm46.58 20.93c-10.2 10.74-20.64 16.78-35.02 20.23-1.22.31-2.06.21-2.58-.22-.75-.63-.66-1.89-.58-2.98l2.39-33.18c.15-1.29.66-2.27 1.57-2.81.88-.48 2.01-.44 3.13.1l29.95 14.5c1.4.69 2.14 1.37 2.29 2.11.12.83-.49 1.57-1.15 2.25zm10.09-62.33c.81.27 1.12 1.16 1.37 2.04 4.21 14.14 4.21 26.24 0 40.49-.34 1.23-.83 1.9-1.49 2.16-.94.29-1.97-.39-2.83-1.02l-27.53-18.69c-1.06-.71-1.68-1.67-1.68-2.7 0-1.01.61-1.97 1.68-2.71l27.53-18.66c1.25-.89 2.22-1.17 2.95-.91z"/><path fill="#17458F" d="M167.35 133.15l.41 7.7c.06 1.15-.76 2.19-1.88 2.4-3.25.59-7.72 1.33-10.53 1.33-14.11 0-18.41-5.4-18.41-23.08V94.49h-5.41c-1.29 0-2.33-1.05-2.33-2.34v-7.99c0-1.29 1.04-2.32 2.33-2.32h5.41v-9.5c0-1.08.74-2.01 1.77-2.26l9.35-2.28c.69-.16 1.42-.01 1.98.43.56.45.89 1.12.89 1.83v11.78h14.26c1.27 0 2.31 1.03 2.31 2.32v7.99c0 1.29-1.04 2.34-2.31 2.34h-14.26v25.04c0 8.66.3 11.67 6.38 11.67 2.24 0 5.75-.15 7.64-.25 1.23-.03 2.36.9 2.4 2.2zM95.7 80.37c-19.1 0-27.62 9.8-27.62 31.8 0 22.31 8.52 32.27 27.62 32.27 19 0 27.48-9.96 27.48-32.27 0-21.71-8.73-31.8-27.48-31.8zm0 51.43c-11.26 0-13.39-6.89-13.39-19.64 0-14.06 3.51-19.03 13.39-19.03 9.53 0 13.25 5.33 13.25 19.03 0 12.44-2.17 19.64-13.25 19.64zM332.12 82.74c-.43-.57-1.1-.9-1.82-.9h-9.09c-1.05 0-1.96.71-2.24 1.73l-12.17 45.9h-.94l-12.18-45.9a2.315 2.315 0 00-2.25-1.73h-9.06c-.73 0-1.41.33-1.85.9-.43.58-.59 1.31-.41 2l13.4 51.48c.67 2.55 3.03 6.87 7.7 6.87h2.6c-.23.87-.46 1.79-.71 2.58l-.12.39c-.73 2.37-1.82 5.96-8.45 5.96l-11.59-.71c-.67-.05-1.3.19-1.77.66-.47.46-.73 1.1-.7 1.77l.28 6.07c.04 1.03.76 1.9 1.77 2.15 3.42.85 9.94 1.83 15.32 2.03.26.02.49.02.74.02 8.74 0 14.68-5.66 17.68-16.8 3.47-13.05 7.81-29.84 10.99-42.1 1.44-5.52 2.67-10.27 3.56-13.66l1.75-6.68c.17-.72 0-1.46-.44-2.03zM59.55 139.84l-14.9-33.65c9.7-4.81 14.41-11.95 14.41-21.82 0-11.82-5.01-25.94-28.92-25.94 0 0-.67-.01-1.94-.01-3.7 0-13.66.14-26.13 1.55A2.32 2.32 0 000 62.28v78.49c0 1.29 1.05 2.32 2.35 2.32h9.7c1.28 0 2.31-1.03 2.31-2.32v-31c3.24.23 9.25.6 16.17.65l13.91 31.29c.35.84 1.2 1.38 2.12 1.38h10.85c.79 0 1.52-.39 1.96-1.05.42-.66.49-1.49.18-2.2zM29.43 97.25c-7.07.08-12.33-.2-15.07-.39v-24.2c1.65-.33 4.91-.76 10.62-.76h5.12c10.41 0 14.12 6.58 14.12 12.73 0 7.68-5.67 12.52-14.79 12.62zM203.59 80.37c-7.05 0-18.36 1.64-22.89 2.36-1.14.18-2.01 1.21-1.94 2.39l.29 7.77c.03.62.33 1.24.79 1.65.49.42 1.13.62 1.77.56 5.06-.45 14.58-1.23 21.24-1.23 4.84 0 7.62 2.68 7.62 7.36v3.69l-15.22 1.22c-14.57 1.09-20.51 6.48-20.51 18.67 0 12.48 6.49 19.62 17.79 19.62 9.4 0 19.91-4.24 20.01-4.28 2.25 1.73 4.51 3.21 9.26 3.89.66.09 1.34-.11 1.85-.56.51-.44.8-1.07.8-1.76v-40.61c.01-14.14-6.62-20.74-20.86-20.74zm6.87 49.59c-.1.02-8.88 2.47-15.36 2.47-5.44 0-6.25-5.02-6.25-8 0-4.83 2.6-7.34 8.1-7.86l13.51-.72v14.11zM269.88 81.37c-6.18.37-12.26 3.9-16.05 6.59v-3.81a2.32 2.32 0 00-2.34-2.32h-9.34a2.32 2.32 0 00-2.34 2.32v56.62a2.32 2.32 0 002.34 2.32h9.34c1.3 0 2.34-1.03 2.34-2.32v-39.13c2.1-1.76 8.63-6.66 16.41-7.34 1.2-.11 2.12-1.11 2.12-2.32v-8.29c0-.65-.26-1.25-.74-1.68-.46-.45-1.1-.69-1.74-.64z"/></svg>