<svg version="1.1" xmlns="http://www.w3.org/2000/svg" viewBox="0 0 215.9 215.9"><style>path{fill:#019fcb}@media(prefers-color-scheme:dark){path{fill:#ffffff}}</style><path d="M215.7 104.6v-.3l-.2-.1c-4.6-2.8-10.6-4.3-16.5-4.5-.1-.8-.8-6.3-.9-7.1 5.6-1.6 11-4.6 14.8-8.5l.2-.2-.1-.3c-.3-2.1-1.1-5-1.8-6.8l-.1-.3-.3-.1c-5.2-1.5-11.3-1.4-17 0-.3-.7-2.4-5.8-2.7-6.5 5-3.1 9.4-7.4 12-12l.1-.2-.1-.3c-.8-1.8-2.3-4.4-3.5-6.1l-.2-.2h-.3c-5.3-.1-11.2 1.5-16.5 4.3-.5-.6-3.9-5.1-4.3-5.7 4.1-4.2 7.2-9.5 8.5-14.7l.1-.3-.2-.2c-1.2-1.6-3.3-3.8-4.9-5l-.2-.2h-.3c-5.2 1.3-10.5 4.5-14.7 8.5-.6-.5-5.1-4-5.7-4.5 2.8-5 4.5-10.7 4.5-16v-.7l-.2-.2c-1.6-1.3-4.2-2.8-6.1-3.5l-.3-.1-.2.1c-4.7 2.6-9 7-12 12-.8-.3-6.1-2.6-6.8-2.9.7-2.8 1.1-5.7 1.1-8.6 0-2.9-.4-5.8-1.1-8.4l-.1-.3-.3-.1c-1.8-.8-4.6-1.5-6.7-1.8h-.3l-.2.2c-3.9 3.8-6.9 9.1-8.5 14.7l-7.2-.9C116.4 11 114.9 5 112.1.4l-.1-.3h-.3c-2-.3-5-.3-7 0h-.3l-.4.4C101.3 5 99.7 11 99.6 16.9c-.8.1-6.5.8-7.3.9-1.6-5.7-4.7-11-8.5-14.8l-.2-.2h-.3c-2.1.3-5 1.1-6.7 1.8l-.3.1-.1.3c-.7 2.6-1.1 5.6-1.1 8.5 0 2.8.5 5.8 1.1 8.5-.7.3-6.1 2.6-6.9 2.9-3-5-7.4-9.4-12-12l-.3-.1-.3.1c-1.8.8-4.4 2.3-6 3.5l-.3.2v.8c0 5.2 1.6 11 4.4 16-.6.5-4.7 3.7-5.3 4.2-4.2-4.1-9.5-7.2-14.8-8.6h-.3l-.2.2c-1.6 1.2-3.8 3.3-5 4.9l-.2.2.1.3c1.3 5.2 4.4 10.5 8.5 14.8-.4.6-4 5.2-4.5 5.9-5.1-2.8-11-4.5-16.4-4.4h-.3l-.2.2c-1.2 1.6-2.7 4.1-3.5 6.1l-.1.2.1.3c2.6 4.7 7 9 12 12.1-.3.7-2.3 5.7-2.6 6.5-5.8-1.4-11.9-1.4-17.1.1l-.3.1-.1.2c-.8 1.8-1.5 4.6-1.8 6.8v.3l.2.2c3.8 3.8 9.1 6.9 14.8 8.5-.1.8-.8 6.4-.9 7.1-5.8.1-11.9 1.7-16.5 4.4H.2v.3c-.1 1-.2 2.3-.2 3.5 0 1.2.1 2.5.2 3.5v.3l.3.1c4.6 2.8 10.6 4.3 16.4 4.4.1.8.9 6.5 1 7.3-5.6 1.7-11 4.7-14.7 8.6l-.2.3v.3c.3 2.1 1.1 5 1.8 6.8l.1.3.3.1c5.2 1.5 11.4 1.4 17.1 0 .3.7 2.5 5.8 2.8 6.5-5 3-9.4 7.3-12 12l-.1.3.1.3c.8 1.8 2.3 4.4 3.5 6.1l.2.2h.3c5.4.1 11.3-1.5 16.5-4.4.5.6 4 5.1 4.4 5.8-4 4.1-7.2 9.4-8.5 14.7l-.1.3.2.2c1.2 1.6 3.4 3.7 5 5l.2.2.3-.1c5.2-1.3 10.5-4.4 14.8-8.5.6.5 5.1 4 5.8 4.5-2.8 5.1-4.4 10.9-4.4 16.2v.6l.3.2c1.6 1.2 4.1 2.6 6 3.5l.3.1.3-.1c4.7-2.6 9-7 12.1-12.1.7.3 5.6 2.3 6.4 2.6-.7 2.8-1.1 5.7-1.1 8.5 0 3 .4 5.9 1.1 8.5l.1.3.3.1c1.8.8 4.6 1.5 6.7 1.9h.3l.2-.2c3.9-3.8 6.9-9.2 8.4-14.7.8.1 6.5.9 7.3 1 .1 5.9 1.7 11.9 4.5 16.4l.1.2h.3c2 .3 5 .3 7 0h.3l.1-.2c2.7-4.6 4.3-10.5 4.5-16.4.8-.1 6.1-.9 6.9-1 1.6 5.7 4.6 11 8.5 14.8l.2.2h.3c2.1-.3 5-1.1 6.8-1.8l.3-.1.1-.3c.8-2.6 1.1-5.5 1.1-8.5 0-2.9-.4-5.8-1.1-8.6.7-.3 5.9-2.5 6.6-2.8 3 5 7.4 9.4 12 12.1l.2.1.3-.1c1.9-.8 4.5-2.3 6.1-3.5l.2-.1v-.8c0-5.2-1.6-10.9-4.4-16 .6-.5 4.9-3.8 5.5-4.3 4.3 4.1 9.6 7.2 14.8 8.5l.3.1.2-.2c1.6-1.2 3.8-3.4 5-4.9l.2-.2-.1-.2c-1.3-5.2-4.4-10.5-8.5-14.8.5-.6 3.9-5.1 4.4-5.8 5.2 2.8 11.1 4.5 16.4 4.4h.3l.2-.2c1.3-1.6 2.8-4.2 3.5-6.1l.1-.2-.1-.3c-2.5-4.6-6.9-8.9-11.9-12.1.3-.7 2.3-5.7 2.6-6.4 5.7 1.5 11.8 1.5 17 0l.2-.1.1-.3c.8-1.8 1.5-4.6 1.8-6.8v-.3l-.2-.2c-3.8-3.9-9.1-6.9-14.7-8.5.1-.8.9-6.1 1-6.9 5.9-.1 11.9-1.7 16.5-4.4l.2-.2v-.3c.1-1 .2-2.2.2-3.5 0-1.9-.1-3.1-.2-4.1zM108 188.2c-44.6 0-80.9-36.3-80.9-80.9 0-44.6 36.3-80.9 80.9-80.9 44.6 0 80.9 36.3 80.9 80.9 0 44.6-36.3 80.9-80.9 80.9z"/><path d="M108 36.1c-39.2 0-71.1 31.9-71.1 71.2 0 39.3 31.9 71.2 71.1 71.2 39.2 0 71.2-31.9 71.2-71.2 0-39.3-32-71.2-71.2-71.2zm9 11.5c.7-.6 1.6-.4 2.5-.2 14.3 3.5 24.8 9.5 35 20.3.7.8 1.1 1.5 1.1 2.1v.2c-.2 1-1.3 1.5-2.3 2l-29.9 14.5c-1.2.6-2.3.6-3.1.1-.9-.5-1.4-1.5-1.5-2.8l-2.4-33.2c-.2-1.6 0-2.5.6-3zM61.4 67.9c10.3-10.8 20.7-16.8 35-20.3.9-.2 1.8-.4 2.5.2.6.5.8 1.5.7 3L97.2 84c-.1 1.3-.6 2.3-1.5 2.8s-2 .5-3.1-.1l-30-14.5c-1-.5-2.1-1-2.3-2-.1-.6.2-1.4 1.1-2.3zm-7.1 61.5c-1.3.9-2.3 1.2-3 .9-.8-.3-1.1-1.2-1.4-2.1-4.2-14.1-4.2-26.2 0-40.5.4-1.2.9-1.9 1.5-2.1 1-.3 2 .4 2.9 1l27.5 18.7c1 .7 1.6 1.7 1.6 2.7 0 1-.6 2-1.6 2.7l-27.5 18.7zm45.1 38.9c-.7.5-1.6.4-2.5.1-14.3-3.4-24.8-9.5-35-20.2-.8-.8-1.1-1.4-1.1-2.1v-.3c.1-.9 1.3-1.5 2.3-2L93 129.3c1.2-.6 2.3-.6 3.2-.1.9.5 1.4 1.5 1.5 2.8l2.4 33.2c.1 1.6-.1 2.6-.7 3.1zm8.6-41.4c-10.7 0-19.4-8.7-19.4-19.4 0-6.5 3.3-12.6 8.7-16.2 1.8-1.2 4.2-.7 5.4 1.1 1.2 1.8.7 4.3-1.1 5.4-3.3 2.2-5.2 5.8-5.2 9.7 0 6.4 5.2 11.6 11.6 11.6 6.4 0 11.6-5.2 11.6-11.6 0-3.9-1.9-7.6-5.2-9.7-1.8-1.2-2.3-3.6-1.1-5.4 1.2-1.8 3.6-2.3 5.4-1.1 5.5 3.6 8.8 9.7 8.8 16.3-.1 10.6-8.8 19.3-19.5 19.3zm46.5 20.9c-10.2 10.7-20.6 16.8-35 20.2-1.2.3-2.1.2-2.6-.2-.8-.6-.7-1.9-.6-3l2.4-33.2c.1-1.3.7-2.3 1.6-2.8.9-.5 2-.4 3.1.1l29.9 14.5c1.4.7 2.1 1.4 2.3 2.1.2.9-.4 1.6-1.1 2.3zm10.1-62.3c.8.3 1.1 1.2 1.4 2 4.2 14.1 4.2 26.2 0 40.5-.3 1.2-.8 1.9-1.5 2.2-.9.3-2-.4-2.8-1l-27.5-18.7c-1.1-.7-1.7-1.7-1.7-2.7 0-1 .6-2 1.7-2.7l27.5-18.7c1.2-.9 2.2-1.2 2.9-.9z"/></svg>