<svg version="1.0" xmlns="http://www.w3.org/2000/svg" width="933.333" height="933.333" viewBox="0 0 700 700"><path d="M336.8 2.4c-.6 1.1-1.9 3.5-2.9 5.3-2.2 3.8-7.5 19.5-8.3 24.3-.3 1.9-.8 4.6-1 5.9-.3 1.3-.8 5.6-1.2 9.5-.3 3.9-.7 7.2-.8 7.3-.2.2-6.6 1.1-13.1 1.8-3.3.3-6.9.8-8.1 1-1.7.4-2.3-.3-3.3-3.8-3.2-10.8-12.1-27.1-20-36.7-6.1-7.3-7.1-8-10.6-7.5-3.2.5-19.4 5.1-20 5.7-.2.1-1.1 4-2 8.4-2.6 12.8-2.4 27.3.5 42.3.5 3 .9 5.5.8 5.6-1.7 1-20.3 8.5-21.2 8.5-.7 0-2.9-2.4-4.8-5.3-8-12-30.7-32.7-35.9-32.7-1 0-3.5.9-5.6 2.1-9 5-15.1 9-15.6 10.2-.7 2 .2 12.7 1.9 21 1.8 9 5.4 19.9 9 26.9 1.4 2.8 2.3 5.5 2.1 6.2-.3.6-3.1 3.2-6.3 5.6-3.3 2.5-6.7 5.3-7.8 6.2-1.8 1.6-2.1 1.5-6.5-2.3-7.7-6.8-21.1-15.3-30.2-19.1C112 93 112.4 93 104.7 100c-3.7 3.4-7.6 7.4-8.7 9l-2 2.8 2.4 6.8c4.3 12.7 13 27.6 22.4 38.3l3 3.4-6.1 8.1c-3.4 4.4-6.7 8.6-7.2 9.4-.8 1-2.4.7-8-1.9-14.1-6.4-26-9.6-39.7-10.6l-7.7-.5-4.5 6.9c-2.5 3.8-5.2 8.8-6.1 11.1-1.6 3.8-1.5 4.2.1 6.9 6.9 10.9 18.5 23.1 29.9 31.4 3.9 2.8 7.1 5.2 7.2 5.3.2.1-1.6 4.9-3.9 10.5l-4.1 10.3-4.1-.7c-2.3-.4-5.7-1-7.6-1.3-6.2-1.1-29.3-.7-36.3.7-3.7.7-7.5 2-8.2 2.8-1.5 1.4-4.2 9.5-5.1 15-.2 1.5-.7 4-1 5.4-.4 2.2.3 3.4 4.3 6.9 9.7 8.6 23.9 16.9 35.8 21.1 6.6 2.3 8.8 3.6 8.1 4.9-.2.3-.7 3-1 6-1 8.3-1.8 14.5-2 14.6 0 .1-3.3.4-7.2.7-14.1 1.2-29.6 5.5-40.4 11.1l-6.5 3.4-.1 10.8c-.1 6 .1 11.5.4 12.2.6 1.7 12 7.4 20.2 10 7.4 2.4 23.4 5.4 29.8 5.5 3.1 0 4.2.5 4.3 1.6.1 2 .4 4.2 1.4 11.1 1.7 11 1.6 11.1-4.3 13.1-17.8 6.1-42.2 22.5-42.2 28.3 0 2.9 3.7 17.2 5.3 20.4.7 1.5 1.7 2.7 2.2 2.8.6 0 2.4.3 4 .7 1.7.4 4.1 1 5.5 1.3 5.1 1.1 26.7 1.1 33.5-.1 3.9-.7 8.1-1.4 9.4-1.6 2.1-.4 2.8.6 6.7 9.5 2.4 5.4 4.4 10.2 4.4 10.5 0 .4-2.9 2.6-6.4 5-8.8 5.8-22.2 19.1-28 27.9l-4.8 7.2 2.7 5.3c3.4 6.6 8.6 15 9.9 15.9 1 .6 8.8.3 16.6-.7 7.3-1 21.3-5.2 29.6-9 4.2-1.9 8-3.5 8.3-3.5.4 0 3.8 4 7.5 8.9l6.8 9-5.9 6.9c-9.4 11.2-16.8 24.7-20.8 38l-1.4 4.4 8.5 8.5c8 7.9 8.7 8.4 11.7 7.8 10.2-2.1 33.7-15.1 42.4-23.4 1.8-1.7 3.5-3.1 3.9-3.1 1.1 0 18.4 13.4 18.4 14.3 0 .4-.9 2.6-2.1 4.9-6.3 12.4-10.8 29.9-11.3 44l-.2 5.6 7.5 4.6c4.2 2.5 9.2 5.2 11.1 6 3.5 1.4 3.6 1.4 9.8-2.9 10.9-7.3 22.3-18.9 29.7-30l3.5-5.3 6.7 2.8c3.8 1.5 8.4 3.4 10.4 4.3l3.7 1.5-1.4 5.9c-2.9 11.8-2.2 39.8 1.1 48.5.7 1.8 11.7 5.8 19.8 7.3 3.5.7 4.2.4 7.4-2.6 8-7.7 19.1-26.5 23-39.1l1.8-5.9 4.5.7c2.5.3 5.4.7 6.5.8 6.3.7 12.5 1.9 12.6 2.4 0 .4.3 3.5.5 6.9.7 10.3 5.1 27 9.9 37l4.4 9.3h25.2l3.3-7.2c6.8-14.6 10.1-28 11-43.8.2-2.4.7-2.6 10.6-4.3 5.8-.9 11-1.5 11.5-1.3.6.2 1.8 3 2.8 6.2 4 12.9 13 28.1 22.8 38.5l3.6 3.8 6.8-1.6c3.8-.8 9.1-2.3 11.9-3.3l5.1-1.7 1.6-7c2-9 2.2-30.4.4-39.8-2.1-10.2-2.2-9.7 5.3-12.7 3.7-1.4 8.3-3.3 10.4-4.2l3.6-1.5 6 8.2c9.1 12.5 26.6 28.7 32.9 30.3 2.1.6 9.7-3 18.6-8.7l3.7-2.4-.4-8.1c-.9-13.6-3.5-23.4-10.3-38.7-3.3-7.5-3.4-7.9-1.6-9.2 1-.7 4.9-3.8 8.7-6.8l7-5.6 4.5 4c10.3 8.9 25.7 17.8 38 21.8 7.5 2.4 6.2 3 17.3-8l6.7-6.7-1.5-5.4c-3.7-12.7-12.6-28.1-22.6-39.3l-3.8-4.2 6.8-9.1c3.7-5 7.3-9.1 8-9.2.7 0 3.4 1.1 6 2.4 7 3.5 18 7.3 26.3 9 8.7 1.8 20.1 2.7 21.6 1.8 1.6-1.1 8.1-11.7 10.3-16.8l2-4.5-3.8-5.7c-6.6-10.1-17.1-20.8-29.4-30-3.2-2.3-5.8-4.4-5.8-4.6 0-.2.6-1.6 1.4-3.2.7-1.6 2.6-6 4.2-9.7l2.8-6.9 4 .7c2.3.4 6.1 1.1 8.6 1.6 4.9.8 30 .5 34-.5 1.4-.3 3.9-.9 5.6-1.2 3.8-.7 5.5-4.4 8.1-17l1.7-8.1-2.6-2.4c-11.6-10.7-24.6-18.6-38.8-23.5-7.2-2.6-6.8-1.8-5.6-12.4 1.5-12.4 1.4-12.2 8.1-12.7 8.2-.5 24.4-3.9 30.8-6.4 11.1-4.4 16.5-7.2 17-8.8.6-2.4.6-21.2 0-24.1-.3-1.8-1.9-3.2-5.2-4.7-14.7-7.1-28.1-10.6-44.4-11.7-2-.2-3.9-.5-4.1-.7-.4-.4-1.1-4.5-2.1-13.4-.4-2.8-.8-5.8-1.1-6.7-.6-1.9 1.1-3 8.2-5.4 10.6-3.6 26.5-12.7 34.5-19.9 5.7-5.1 5.9-5.6 4.8-10.5-2-9.6-5.3-18.9-6.8-19.5-.9-.4-5.6-1.2-10.6-2-12.4-1.8-30.1-1.2-40.2 1.5-3.9 1-3.9 1.1-8.8-10.9l-3.9-9.4 2.4-1.6c13.4-8.8 27.4-22.8 35.2-35.2 1.6-2.5 1.6-2.9-1.2-8.5-1.5-3.3-4.3-8.2-6.2-10.9-3.6-5.5-3.4-5.4-16.1-4.1-9.5.9-24 5-34.2 9.7-3.5 1.6-6.8 2.9-7.2 2.9-.5 0-3.8-4-7.5-8.8l-6.6-8.9 4.7-5.5c9.2-10.7 17-24.4 21-36.7l2.1-6.3-3-3.8c-3.5-4.5-13.8-14-15-14-.5 0-4.2 1.2-8.2 2.6-11.6 4.2-23.6 11.3-33.6 19.8-3 2.5-5.7 4.6-6.1 4.6-.5 0-11.9-8.6-18-13.6-.2-.1 1.3-3.6 3.2-7.8 2-4.1 4.7-11.2 6.2-15.8 2.6-8.5 5.5-26.8 4.7-30.1C535.5 51.9 519 42 515 42c-.8 0-4 1.7-7 3.7-10.2 6.8-20.7 17.4-28.2 28.4l-4.4 6.5-11-4.5-11-4.6.8-4c.4-2.2 1-5.8 1.4-8 1.8-9.3.9-31.3-1.7-40.7-.9-3.4-1.4-3.8-7.2-5.6-3.4-1.1-8.7-2.6-11.7-3.3l-5.4-1.2-5.7 6.2c-9 10-16 22.8-22.3 40.5-.7 1.9-1 1.9-19-.3l-4.9-.6-.4-6.5c-.7-13.6-5.3-30.7-11.4-42l-3.2-6.1-12.4.2c-11.5.1-12.4.3-13.5 2.3zm33.8 84.1c5 .3 9.9.7 11 .9 1 .2 4.2.7 6.9 1 37.1 5 78.1 21.3 111.4 44.4 58.2 40.4 98.7 104.8 109.2 173.7.6 3.8 1.2 8.1 1.5 9.5 2.2 13.6 2.2 47.6-.1 64-.2 1.4-.6 4.7-1 7.5-1.7 11.9-9.1 41.2-12.4 49-.5 1.1-1.9 4.7-3.2 8-11.8 31.4-34.9 65.8-61.5 91.7-20.2 19.6-38.4 32.5-66.4 46.7-18.8 9.5-49.1 19.9-66 22.5-3.2.5-5 .8-12 2.1-8 1.4-18.8 2-37 2-25.1 0-31.9-.6-55.5-5-10.6-2-35.9-9.9-45.1-14-28.4-12.8-44.3-22.2-63.9-37.9-50.2-40.2-84.4-98.2-95-161.1-2.6-15.5-3-21.5-3-44 0-26.5.9-34.6 6.1-58.1 8.2-37.1 26.9-75.6 51.5-106.1 10.8-13.3 32.1-34.1 44.4-43.4 18.7-14 40.1-26.4 58.5-33.9 3-1.2 6.9-2.8 8.5-3.5 6.3-2.7 29.4-9.5 36.5-10.9 1.4-.3 4.8-.9 7.7-1.5 2.9-.6 7.4-1.3 10-1.6 2.6-.4 5.9-.8 7.3-1.1 1.4-.2 7.9-.7 14.5-1 6.6-.4 12.1-.8 12.2-.9.4-.2 14.6.3 24.9 1z"/><path d="M333.9 117.4c-.2.2-3.1.6-6.4.9-33 3.3-64.1 13.2-92 29.5-46.6 27.1-82.1 68.8-101.1 118.8-2.6 6.8-7.1 21-7.9 24.9-.2 1.1-1.3 6.3-2.4 11.6-2.9 14.1-4.4 28.6-4.4 44.9 0 8.1 1.2 28 1.7 28.9.2.3.7 3.1 1 6.1.4 3 1.3 8.3 2.1 11.6.8 3.4 1.6 7.3 1.9 8.5 4.1 20.1 17.7 51.1 31.6 72 9.5 14.4 15.1 21.1 28.5 34.9 12.6 13 40.6 35 44.5 35 .5 0 1 .4 1 1 0 .5.4 1 .8 1 .5 0 4.9 2.2 9.8 4.8 9.3 5 19.5 9.5 33.1 14.6 4.9 1.8 25.2 7.3 30.1 8.1 1.7.3 4.7.7 6.5 1 1.7.3 4.3.7 5.7 1 18.5 3.4 53.6 2.5 76-2.1 11.5-2.3 25.6-6.1 35-9.5 9.5-3.5 30.9-13.6 37.3-17.6 2.3-1.5 6.7-4.2 9.7-6.2 41.7-26.4 76.7-71.5 92.8-119.6 3.4-10.2 6.6-22.1 8.1-31 .6-3.3 1.3-7 1.5-8.2 2.1-10.5 2.8-45.1 1.3-59-4.2-38.7-18.1-75.5-40.6-107.8-13.2-18.9-36.5-42.5-54.1-54.8-11.9-8.3-14.1-9.7-26.5-16.3-24.4-13.1-50.1-21.6-76-25-2.2-.3-5.1-.8-6.5-1-3.2-.6-41.6-1.5-42.1-1zm66.1 39.7c30.3 8.8 58.1 23.6 80 42.4 9 7.8 23.7 23.1 24.2 25.2 1.3 4.9 1.9 4.5-57.2 33-7.4 3.6-21.4 10.4-31 15-19.5 9.5-22.5 10.3-26.4 7.8-3.2-2.1-4.2-6-5.2-19-.3-5.5-.8-11.6-1-13.5-.1-1.9-.6-8-.9-13.5-.4-5.5-.8-11.6-1-13.5-.2-1.9-.6-8-1-13.5s-.8-11.8-1-14c-2.6-34.1-2.6-37.2 0-39.2 2.5-1.8 6.3-1.3 20.5 2.8zm-78.4-.6c1.4 2.1 1.5 4.2 1 13.4-.4 6-.9 12.4-1.1 14.2-.2 1.9-.6 8.1-1 13.9-.3 5.8-.8 11.8-1 13.5-.2 1.6-.7 7.7-1.1 13.5-.3 5.8-.8 12.3-.9 14.5-.2 2.2-.6 8.5-1 14-1.4 22.9-2.2 26.1-7 28.1-4.3 1.7-5.6 1.3-25-8.1-8.8-4.3-22.7-11-31-15-39.4-19.1-54.1-26.4-55.8-27.6-3.1-2.5-2.8-5.4 1.1-10 9.2-10.7 25.7-25 39.7-34.3 5.5-3.7 10.5-7 11-7.4 2.7-2 20.1-10.5 29.1-14.1 12.7-5.1 32.7-11 37.6-11.1 2.9 0 4.1.6 5.4 2.5zm-147 123.6c2.2 1.3 9.8 6.3 16.9 11.2 7.2 4.9 20 13.6 28.5 19.4 34.1 22.9 47.2 32.2 48.7 34.2 1.9 2.8 2 7.4.1 10.3-.9 1.3-6.2 5.6-11.9 9.4-5.7 3.9-21.9 14.9-35.9 24.4-55.2 37.6-52.2 35.9-56.3 31.8-2.2-2.2-3-4.8-8.7-27.8-.8-3.2-1.1-5.1-2.6-15.2-3.4-24.1-2-50.5 4.1-77 5.6-24.1 7.6-26.6 17.1-20.7zm360.7-1.6c3.8 3.7 10.8 34.4 12.4 53.3 1.5 19.1.5 36.7-3.2 56.2-2.9 15.5-2.9 15.3-5.4 23.6-4 12.9-6.1 13.5-18.4 4.8-2.6-1.9-5-3.4-5.3-3.4-.3 0-1.1-.6-1.9-1.3-.7-.6-19-13.2-40.7-27.9-21.7-14.7-40-27.4-40.7-28.2-2.5-3-3-7.3-1.1-10.3 1.5-2.6 23.7-18.1 85.3-59.7 12.8-8.6 16.2-9.9 19-7.1zM328 295.3c1.3.7 3.5 2.8 4.8 4.7 1.9 2.8 2.3 4.4 1.9 7.9-.4 3.9-1.3 5.1-8.1 11.6-10.3 9.8-13.6 16.9-13.8 29.2-.1 14.7 8.7 28 22.8 34.5 4 1.9 6.6 2.3 14.4 2.3 8.2 0 10.3-.4 15.2-2.7 8.1-3.8 15.2-10.8 19-18.7 2.8-5.8 3.1-7.6 3.1-15.1-.1-13.3-4.4-22.4-14.9-30.9-6.5-5.3-8.2-9.5-6.2-15.6.8-2.5 2.5-4.8 4.7-6.2 6.8-4.6 13.2-2.4 23.5 7.9 12.4 12.4 18.7 27.4 18.7 44.3.2 34.4-28.5 62.9-63.1 62.7-40.9-.1-71-39.3-60.5-78.7 4-15.2 15.7-31 27.2-37 3.4-1.8 8-1.9 11.3-.2zm85.5 129.2c7.7 3.7 19.9 9.6 27 13 63 30.3 65.5 31.7 63.9 36.9-.6 1.9-12.7 14.4-21.9 22.6-19.8 17.5-47.1 33-73 41.3-22.6 7.3-27.9 8.1-31 5-1.5-1.5-1.7-3.1-1-13.7.4-6.7.9-13.7 1-15.6.2-1.9.6-7.6 1-12.7.3-5.1.8-11.8 1-15 .3-3.2.7-9.4 1-13.8.3-4.4.8-10.7 1.1-14 .4-6 .9-12.1 1.9-27 .6-8.4 2.2-12 6.4-14.1 3.3-1.7 6.9-.5 22.6 7.1zm-100.8-5c2.8 2 4 6.6 4.8 18.5.5 9 .8 12.2 2 26.5.3 3.3.7 9.8 1 14.5.3 4.7.7 11.4 1 15 1.4 18.3 2.8 37 3 42 .2 5.7-1.1 9.8-3.5 10.5-2.1.7-18.5-3.2-29.9-7.2-26.3-8.9-50-22.3-69.6-39.1-9.6-8.2-23.4-22.5-23.9-24.8-.4-1.3-.2-3.3.4-4.4 1-1.8 16.1-9.5 62.9-32.1 8.5-4.1 21.5-10.4 29-14.1 14.3-7 18.9-8.1 22.8-5.3z"/></svg>